# Blender 4.2.1 LTS
# www.blender.org
mtllib desk_h800_break5.mtl
o desk_h800_break5
v -1.200000 0.033000 -0.217500
v -1.200000 -0.033000 -0.217500
v 1.200000 0.033000 -0.217500
v 1.200000 -0.033000 -0.217500
v -1.200000 0.033000 0.217500
v -1.200000 -0.033000 0.217500
v 1.200000 0.033000 0.217500
v 1.200000 -0.033000 0.217500
v -0.673443 0.033000 -0.217500
v -0.678470 0.033000 -0.193881
v -0.671909 -0.030592 -0.217500
v -0.679028 0.033000 -0.190866
v -0.671826 -0.033000 -0.217500
v -0.678927 -0.033000 -0.179120
v -0.698775 0.033000 -0.153276
v -0.680816 -0.033000 -0.175524
v -0.700312 0.033000 -0.150651
v -0.700829 -0.033000 -0.141331
v -0.717121 0.033000 -0.142644
v -0.701164 0.033000 -0.150519
v -0.713450 -0.033000 -0.138863
v -0.711923 -0.033000 -0.139616
v -0.719046 0.033000 -0.142199
v -0.738518 -0.033000 -0.133074
v -0.739605 0.033000 -0.134762
v -0.740484 -0.033000 -0.132362
v -0.741100 0.033000 -0.136231
v -0.759964 -0.033000 -0.151496
v -0.762297 0.033000 -0.159717
v -0.761992 -0.033000 -0.153742
v -0.764314 0.033000 -0.161245
v -0.788261 -0.033000 -0.173656
v -0.794955 0.033000 -0.186974
v -0.791192 -0.033000 -0.176118
v -0.813748 0.033000 -0.206768
v -0.811392 0.033000 -0.204932
v -0.836619 -0.019203 -0.217500
v -0.839025 -0.033000 -0.217500
v -0.811978 -0.033000 -0.196417
v -0.796441 0.033000 -0.188411
v -0.810548 -0.033000 -0.194836
v -0.826455 0.033000 -0.217500
vn -0.0000 1.0000 -0.0000
vn 1.0000 -0.0000 -0.0000
vn -0.0000 -0.0000 1.0000
vn -0.0000 -1.0000 -0.0000
vn -0.0000 -0.0000 -1.0000
vn -1.0000 -0.0000 -0.0000
vn -0.1513 -0.1370 -0.9789
vn -0.3182 -0.1038 -0.9423
vn -0.2811 -0.1116 -0.9532
vn -0.8693 -0.0717 -0.4891
vn -0.8746 -0.0766 -0.4787
vn -0.8613 -0.0644 -0.5041
vn -0.3329 -0.0724 -0.9402
vn -0.3374 -0.0725 -0.9386
vn -0.2942 -0.0452 -0.9547
vn -0.2713 -0.0528 -0.9610
vn 0.7003 -0.0353 -0.7130
vn 0.7256 -0.0486 -0.6864
vn 0.7165 -0.0438 -0.6962
vn 0.6697 -0.0832 -0.7380
vn 0.6647 -0.0842 -0.7424
vn 0.7191 -0.0866 -0.6894
vn 0.7130 -0.0846 -0.6961
vn 0.6777 -0.0632 -0.7326
vn 0.6720 -0.0637 -0.7378
vn 0.6264 -0.0815 -0.7753
vn 0.6172 -0.0767 -0.7830
vn 0.6805 -0.0997 -0.7259
vn 0.6740 -0.1004 -0.7319
vn -0.9485 -0.0569 -0.3116
vn -0.9379 -0.0622 -0.3413
vn 0.6113 -0.1066 -0.7842
vn 0.6140 -0.1083 -0.7819
vn 0.6219 -0.1131 -0.7749
vn -0.3400 -0.0296 -0.9400
vn 0.6402 -0.1246 -0.7580
vn -0.9822 -0.0327 -0.1849
vn -0.9810 -0.0299 -0.1919
vn -0.9778 -0.0236 -0.2081
vn -0.9827 -0.0339 -0.1818
vt 0.625000 0.500000
vt 0.875000 0.500000
vt 0.875000 0.750000
vt 0.625000 0.750000
vt 0.625000 0.554850
vt 0.638574 0.554326
vt 0.640307 0.554268
vt 0.661910 0.552211
vt 0.663419 0.552051
vt 0.663495 0.551962
vt 0.668021 0.550300
vt 0.668276 0.550099
vt 0.672550 0.547958
vt 0.671706 0.547802
vt 0.658209 0.545594
vt 0.657330 0.545384
vt 0.642544 0.542192
vt 0.641718 0.542037
vt 0.632223 0.540480
vt 0.631168 0.540235
vt 0.625000 0.538911
vt 0.375000 0.750000
vt 0.625000 1.000000
vt 0.375000 1.000000
vt 0.375000 0.000000
vt 0.625000 0.000000
vt 0.625000 0.250000
vt 0.375000 0.250000
vt 0.125000 0.500000
vt 0.375000 0.500000
vt 0.375000 0.537602
vt 0.362883 0.540419
vt 0.361975 0.540568
vt 0.351217 0.542584
vt 0.349803 0.542890
vt 0.338358 0.545626
vt 0.337066 0.545837
vt 0.326070 0.547866
vt 0.326479 0.548071
vt 0.329806 0.550682
vt 0.330239 0.550841
vt 0.331225 0.551997
vt 0.350876 0.554082
vt 0.352943 0.554278
vt 0.375000 0.555018
vt 0.125000 0.750000
vt 0.427263 0.537852
vt 0.787722 0.551390
vt 0.230241 0.551506
vt 0.231070 0.553984
vt 0.787786 0.551580
vt 0.786453 0.551047
vt 0.213713 0.547035
vt 0.783979 0.555145
vt 0.230706 0.554325
vt 0.233504 0.559924
vt 0.784194 0.555575
vt 0.780599 0.560167
vt 0.233160 0.560364
vt 0.223912 0.564715
vt 0.779889 0.560501
vt 0.802939 0.572531
vt 0.216561 0.571690
vt 0.207513 0.576014
vt 0.802244 0.572863
vt 0.224998 0.565168
vt 0.791241 0.565236
vt 0.384123 0.555009
vt 0.215371 0.571036
vt 0.790502 0.565686
vt 0.208277 0.576334
vt 0.810230 0.576203
vt 0.804623 0.546636
vt 0.215451 0.546613
vt 0.198085 0.582375
vt 0.324785 0.581838
vt 0.809342 0.576729
vt 0.814530 0.579567
vt 0.218606 0.545045
vt 0.803166 0.546511
vt 0.814583 0.545388
vt 0.196899 0.545027
s 1
usemtl Material.059
f 1/1/1 5/2/1 7/3/1 3/4/1 9/5/1 10/6/1 12/7/1 15/8/1 17/9/1 20/10/1 19/11/1 23/12/1 25/13/1 27/14/1 29/15/1 31/16/1 33/17/1 40/18/1 36/19/1 35/20/1 42/21/1
f 4/22/2 3/4/2 7/23/2 8/24/2
f 8/25/3 7/26/3 5/27/3 6/28/3
f 6/29/4 2/30/4 38/31/4 39/32/4 41/33/4 34/34/4 32/35/4 30/36/4 28/37/4 26/38/4 24/39/4 21/40/4 22/41/4 18/42/4 16/43/4 14/44/4 13/45/4 4/22/4 8/46/4
f 2/30/5 1/1/5 42/21/5 37/47/5 38/31/5
f 6/28/6 5/27/6 1/1/6 2/30/6
f 17/48/7 18/49/7 22/50/8 20/51/9
f 15/52/10 16/53/11 18/49/12 17/48/12
f 19/54/13 21/55/14 24/56/15 23/57/16
f 25/58/17 26/59/17 28/60/18 27/61/19
f 33/62/20 34/63/21 41/64/22 40/65/23
f 27/61/19 28/60/18 30/66/24 29/67/25
f 13/45/5 11/68/5 9/5/5 3/4/5 4/22/5
f 29/67/25 30/66/24 32/69/26 31/70/27
f 20/51/9 22/50/8 21/55/14 19/54/13
f 40/65/23 41/64/22 39/71/28 36/72/29
f 12/73/30 14/74/31 16/53/11 15/52/10
f 36/72/29 39/71/28 38/75/32 37/76/33 35/77/34
f 31/70/27 32/69/26 34/63/21 33/62/20
f 23/57/16 24/56/15 26/59/35 25/58/35
f 35/77/34 37/76/33 42/78/36
f 11/79/37 10/80/38 9/81/39
f 10/80/38 11/79/37 13/82/40 14/74/31 12/73/30
