# Blender 4.2.1 LTS
# www.blender.org
mtllib desk_h800_break2.mtl
o desk_h800_break2
v -1.200000 0.033000 -0.217500
v -1.200000 -0.033000 -0.217500
v -1.200000 0.033000 0.217500
v -1.200000 -0.033000 0.217500
v 1.200000 0.033000 0.217500
v 1.200000 -0.033000 0.217500
v 0.073691 -0.033000 -0.217500
v 1.200000 -0.033000 0.016605
v 0.068731 0.033000 -0.217500
v 1.200000 0.033000 0.030999
v 1.112780 0.033000 0.016109
v 1.029744 0.033000 0.012446
v 0.985726 0.033000 0.009265
v 0.900330 0.033000 0.005483
v 0.793007 0.033000 -0.018242
v 0.674143 0.033000 -0.005164
v 0.597700 0.033000 -0.007906
v 0.505821 0.033000 -0.032180
v 0.377573 0.033000 -0.059239
v 0.261607 0.033000 -0.116235
v 0.173251 0.033000 -0.157273
v 0.186557 -0.033000 -0.131086
v 0.272550 -0.033000 -0.084873
v 0.381557 -0.033000 -0.034828
v 0.497919 -0.033000 -0.011913
v 0.607486 -0.033000 -0.011933
v 0.681239 -0.033000 -0.005726
v 0.797403 -0.033000 -0.024322
v 0.909847 -0.033000 0.003633
v 1.008886 -0.033000 0.005263
v 1.122093 -0.033000 0.009179
v 1.200000 -0.009965 0.020419
v 1.200000 0.014698 0.028274
vn -0.0000 1.0000 -0.0000
vn 0.1283 0.0545 -0.9902
vn 0.1473 0.0570 -0.9875
vn 0.0446 0.0666 -0.9968
vn -0.0000 -0.0000 1.0000
vn -0.0000 -1.0000 -0.0000
vn -0.0000 -0.0000 -1.0000
vn -1.0000 -0.0000 -0.0000
vn 0.0413 0.0866 -0.9954
vn 0.0299 0.0789 -0.9964
vn 0.0350 0.0827 -0.9960
vn 0.0513 0.0952 -0.9941
vn 0.0924 0.1360 -0.9864
vn 0.1006 0.1179 -0.9879
vn 1.0000 -0.0000 -0.0000
vn 0.1263 0.1738 -0.9766
vn 0.0927 0.2122 -0.9728
vn -0.0277 0.0206 -0.9994
vn -0.0181 0.0200 -0.9996
vn 0.0314 0.0517 -0.9982
vn 0.1691 -0.2437 -0.9550
vn 0.0643 -0.0094 -0.9979
vn 0.2858 -0.3134 -0.9056
vn 0.2160 -0.3136 -0.9247
vn 0.4256 -0.3221 -0.8457
vn 0.3122 -0.3202 -0.8944
vn 0.4928 -0.2513 -0.8331
vn 0.4257 -0.3131 -0.8490
vn 0.5343 -0.0352 -0.8446
vn 0.5116 -0.1839 -0.8393
vn 0.4989 0.0375 -0.8658
vt 0.625000 0.500000
vt 0.875000 0.500000
vt 0.875000 0.750000
vt 0.767815 0.750000
vt 0.759258 0.740915
vt 0.757153 0.732265
vt 0.755325 0.727680
vt 0.753151 0.718784
vt 0.739516 0.707605
vt 0.747032 0.695223
vt 0.745456 0.687260
vt 0.731506 0.677690
vt 0.715955 0.664330
vt 0.683198 0.652251
vt 0.659613 0.643047
vt 0.625000 0.632159
vt 0.247912 0.719776
vt 0.375000 0.000000
vt 0.625000 0.000000
vt 0.625000 0.250000
vt 0.375000 0.250000
vt 0.125000 0.500000
vt 0.375000 0.500000
vt 0.375000 0.632676
vt 0.325337 0.644433
vt 0.298778 0.653391
vt 0.270016 0.664746
vt 0.256847 0.676867
vt 0.256858 0.688280
vt 0.253291 0.695962
vt 0.263978 0.708063
vt 0.246975 0.730092
vt 0.244725 0.741885
vt 0.240457 0.750000
vt 0.125000 0.750000
vt 0.375000 0.884543
vt 0.462252 0.886735
vt 0.555674 0.891249
vt 0.625000 0.892815
vt 0.625000 1.000000
vt 0.375000 1.000000
s 1
usemtl Material.043
f 1/1/1 3/2/1 5/3/1 10/4/1 11/5/1 12/6/1 13/7/1 14/8/1 15/9/1 16/10/1 17/11/1 18/12/1 19/13/1 20/14/1 21/15/1 9/16/1
f 29/17/2 14/8/3 13/7/4
f 6/18/5 5/19/5 3/20/5 4/21/5
f 4/22/6 2/23/6 7/24/6 22/25/6 23/26/6 24/27/6 25/28/6 26/29/6 27/30/6 28/31/6 29/17/6 30/32/6 31/33/6 8/34/6 6/35/6
f 2/23/7 1/1/7 9/16/7 7/24/7
f 4/21/8 3/20/8 1/1/8 2/23/8
f 28/31/9 15/9/10 14/8/3
f 30/32/11 13/7/4 12/6/12
f 31/33/13 12/6/12 11/5/14
f 8/36/15 32/37/15 33/38/15 10/39/15 5/40/15 6/41/15
f 31/33/13 10/4/16 8/34/17
f 27/30/18 16/10/19 15/9/10
f 26/29/20 16/10/19 27/30/18
f 25/28/21 17/11/22 26/29/20
f 24/27/23 18/12/24 25/28/21
f 23/26/25 19/13/26 24/27/23
f 22/25/27 20/14/28 23/26/25
f 7/24/29 21/15/30 22/25/27
f 29/17/2 28/31/9 14/8/3
f 28/31/9 27/30/18 15/9/10
f 30/32/11 29/17/2 13/7/4
f 31/33/13 30/32/11 12/6/12
f 31/33/13 11/5/14 10/4/16
f 26/29/20 17/11/22 16/10/19
f 25/28/21 18/12/24 17/11/22
f 24/27/23 19/13/26 18/12/24
f 23/26/25 20/14/28 19/13/26
f 22/25/27 21/15/30 20/14/28
f 7/24/29 9/16/31 21/15/30
