# Blender 4.2.1 LTS
# www.blender.org
mtllib desk_h800_break6.mtl
o desk_h800_break6
v -1.200000 0.033000 -0.217500
v -1.200000 -0.033000 -0.217500
v 1.200000 0.033000 -0.217500
v 1.200000 -0.033000 -0.217500
v -1.200000 0.033000 0.217500
v -1.200000 -0.033000 0.217500
v 1.200000 0.033000 0.217500
v 1.200000 -0.033000 0.217500
v 0.886376 -0.024363 -0.217535
v 0.881859 0.033000 -0.217500
v 0.867166 0.033000 -0.196775
v 0.862578 0.033000 -0.189332
v 0.887320 -0.033000 -0.217500
v 0.862904 -0.033000 -0.177887
v 0.792341 0.033000 -0.149196
v 0.850633 -0.033000 -0.170875
v 0.779708 0.033000 -0.142716
v 0.778029 -0.033000 -0.133635
v 0.715948 0.033000 -0.133982
v 0.772705 0.033000 -0.142392
v 0.727865 -0.033000 -0.130298
v 0.737781 -0.033000 -0.131768
v 0.700125 0.033000 -0.132885
v 0.636922 -0.033000 -0.123993
v 0.627002 0.033000 -0.124944
v 0.624146 -0.033000 -0.122606
v 0.614705 0.033000 -0.128570
v 0.553476 -0.033000 -0.143444
v 0.539314 0.033000 -0.153647
v 0.540305 -0.033000 -0.147825
v 0.522733 0.033000 -0.157420
v 0.445004 -0.033000 -0.169514
v 0.413749 0.033000 -0.184892
v 0.425963 -0.033000 -0.174313
v 0.401531 0.033000 -0.188439
v 0.355742 -0.033000 -0.194700
v 0.348353 0.033000 -0.206079
v 0.346451 -0.033000 -0.197782
v 0.280082 -0.001388 -0.217500
v 0.301813 0.033000 -0.217500
v 0.328984 0.033000 -0.210612
v 0.262188 -0.033000 -0.217500
vn -0.0000 1.0000 -0.0000
vn 1.0000 -0.0000 -0.0000
vn -0.0000 -0.0000 1.0000
vn -0.0000 -1.0000 -0.0000
vn -0.0000 -0.0000 -1.0000
vn 0.1660 -0.1049 -0.9805
vn 0.1152 -0.0663 -0.9911
vn 0.0772 -0.0437 -0.9961
vn -1.0000 -0.0000 -0.0000
vn -0.2631 -0.1249 -0.9566
vn -0.2477 -0.1259 -0.9606
vn -0.1118 -0.1000 -0.9887
vn -0.0803 -0.1168 -0.9899
vn -0.4635 -0.1210 -0.8778
vn -0.4810 -0.1405 -0.8654
vn -0.1034 -0.0740 -0.9919
vn -0.1118 -0.0755 -0.9909
vn -0.0980 -0.0401 -0.9944
vn -0.0790 -0.0584 -0.9952
vn 0.0841 -0.0389 -0.9957
vn 0.0940 -0.0393 -0.9948
vn 0.3064 -0.0703 -0.9493
vn 0.2909 -0.0546 -0.9552
vn 0.2626 -0.1051 -0.9592
vn 0.2578 -0.1062 -0.9603
vn 0.3016 -0.1195 -0.9459
vn 0.2882 -0.1097 -0.9513
vn 0.2693 -0.0806 -0.9597
vn 0.2671 -0.0807 -0.9603
vn 0.0001 -0.0000 -1.0000
vn 0.2381 -0.1035 -0.9657
vn 0.2261 -0.0885 -0.9701
vn 0.2696 -0.1278 -0.9545
vn 0.2692 -0.1278 -0.9546
vn -0.7030 -0.1249 -0.7001
vn -0.6768 -0.1290 -0.7248
vn 0.2293 -0.1329 -0.9642
vn -0.8434 -0.0908 -0.5296
vn -0.8361 -0.0838 -0.5422
vn -0.8141 -0.0638 -0.5772
vn -0.8475 -0.0948 -0.5223
vt 0.625000 0.500000
vt 0.875000 0.500000
vt 0.875000 0.750000
vt 0.625000 0.750000
vt 0.625000 0.716860
vt 0.636911 0.715330
vt 0.641188 0.714852
vt 0.664255 0.707536
vt 0.667979 0.706220
vt 0.668166 0.705490
vt 0.672999 0.699578
vt 0.673629 0.697930
vt 0.678193 0.690313
vt 0.676109 0.689032
vt 0.661697 0.681179
vt 0.659529 0.679451
vt 0.643740 0.668099
vt 0.641702 0.666826
vt 0.631564 0.661287
vt 0.628959 0.659269
vt 0.625000 0.656439
vt 0.375000 0.750000
vt 0.625000 1.000000
vt 0.375000 1.000000
vt 0.375000 0.000000
vt 0.625000 0.000000
vt 0.625000 0.250000
vt 0.375000 0.250000
vt 0.125000 0.500000
vt 0.375000 0.500000
vt 0.375000 0.652311
vt 0.363668 0.661089
vt 0.361896 0.662056
vt 0.350180 0.669371
vt 0.347422 0.671355
vt 0.334957 0.681282
vt 0.332439 0.682654
vt 0.320463 0.690015
vt 0.321261 0.691346
vt 0.324884 0.700819
vt 0.325728 0.701852
vt 0.326802 0.706045
vt 0.348204 0.713608
vt 0.352234 0.714886
vt 0.375000 0.717429
vt 0.125000 0.750000
vt 0.494743 0.654175
vt 0.735923 0.551401
vt 0.269922 0.551497
vt 0.270696 0.553813
vt 0.736058 0.551804
vt 0.733236 0.550674
vt 0.254479 0.547321
vt 0.732571 0.555069
vt 0.270087 0.554383
vt 0.272701 0.559615
vt 0.733026 0.555979
vt 0.729733 0.560185
vt 0.272126 0.560350
vt 0.263485 0.564415
vt 0.728229 0.560893
vt 0.748455 0.572453
vt 0.258298 0.571750
vt 0.249845 0.575790
vt 0.746984 0.573156
vt 0.265302 0.565173
vt 0.738628 0.565230
vt 0.407717 0.717331
vt 0.256308 0.570655
vt 0.737063 0.566184
vt 0.251123 0.576324
vt 0.754299 0.576215
vt 0.749880 0.546634
vt 0.257387 0.546615
vt 0.242946 0.581172
vt 0.485602 0.580142
vt 0.752419 0.577329
vt 0.755276 0.578892
vt 0.306019 0.545265
vt 0.746793 0.546370
vt 0.755388 0.545524
vt 0.240961 0.545210
s 1
usemtl Material.062
f 1/1/1 5/2/1 7/3/1 3/4/1 10/5/1 11/6/1 12/7/1 15/8/1 17/9/1 20/10/1 19/11/1 23/12/1 25/13/1 27/14/1 29/15/1 31/16/1 33/17/1 35/18/1 37/19/1 41/20/1 40/21/1
f 4/22/2 3/4/2 7/23/2 8/24/2
f 8/25/3 7/26/3 5/27/3 6/28/3
f 6/29/4 2/30/4 42/31/4 38/32/4 36/33/4 34/34/4 32/35/4 30/36/4 28/37/4 26/38/4 24/39/4 21/40/4 22/41/4 18/42/4 16/43/4 14/44/4 13/45/4 4/22/4 8/46/4
f 2/30/5 1/1/5 40/21/6 39/47/7 42/31/8
f 6/28/9 5/27/9 1/1/9 2/30/9
f 17/48/10 18/49/11 22/50/12 20/51/13
f 15/52/14 16/53/15 18/49/11 17/48/10
f 19/54/16 21/55/17 24/56/18 23/57/19
f 25/58/20 26/59/21 28/60/22 27/61/23
f 33/62/24 34/63/25 36/64/26 35/65/27
f 27/61/23 28/60/22 30/66/28 29/67/29
f 13/45/30 9/68/30 10/5/30 3/4/30 4/22/30
f 29/67/29 30/66/28 32/69/31 31/70/32
f 20/51/13 22/50/12 21/55/17 19/54/16
f 35/65/27 36/64/26 38/71/33 37/72/34
f 12/73/35 14/74/36 16/53/15 15/52/14
f 37/72/34 38/71/33 42/75/8 39/76/7 41/77/37
f 31/70/32 32/69/31 34/63/25 33/62/24
f 23/57/19 24/56/18 26/59/21 25/58/20
f 41/77/37 39/76/7 40/78/6
f 9/79/38 11/80/39 10/81/40
f 11/80/39 9/79/38 13/82/41 14/74/36 12/73/35
