# Blender 4.2.1 LTS
# www.blender.org
mtllib desk_h800_break4.mtl
o desk_h800_break4
v 1.198298 0.033000 -0.217500
v 1.198298 -0.033000 -0.217500
v 1.198298 0.033000 0.217500
v 1.198298 -0.033000 0.217500
v -0.707828 0.033000 -0.217500
v -0.655300 0.033000 0.217500
v -0.704904 -0.033000 -0.217500
v -0.654087 -0.033000 0.217500
v -0.688995 0.033000 0.134569
v -0.688732 0.033000 0.077303
v -0.699254 0.033000 0.026401
v -0.690207 0.033000 -0.033781
v -0.708622 0.033000 -0.084608
v -0.711702 0.033000 -0.160213
v -0.706534 -0.033000 -0.161138
v -0.703496 -0.033000 -0.095206
v -0.680863 -0.033000 -0.021378
v -0.692773 -0.033000 0.053942
v -0.676527 -0.033000 0.097887
v -0.684471 -0.033000 0.151470
vn 1.0000 -0.0000 -0.0000
vn -0.0000 -0.0000 1.0000
vn -0.0000 -0.0000 -1.0000
vn -0.0000 1.0000 -0.0000
vn -0.0000 -1.0000 -0.0000
vn -0.9970 -0.0608 -0.0483
vn -0.9958 -0.0814 0.0430
vn -0.9451 -0.0994 0.3112
vn -0.9751 -0.1625 -0.1508
vn -0.9617 -0.0372 0.2714
vn -0.9866 -0.1458 -0.0730
vn -0.9186 0.0107 0.3951
vt 0.375000 0.750000
vt 0.625000 0.750000
vt 0.625000 1.000000
vt 0.375000 1.000000
vt 0.375000 0.000000
vt 0.625000 0.000000
vt 0.625000 0.193357
vt 0.375000 0.193231
vt 0.375000 0.551468
vt 0.625000 0.551163
vt 0.657923 0.550759
vt 0.701375 0.551080
vt 0.730586 0.553001
vt 0.765173 0.552058
vt 0.794427 0.553155
vt 0.827339 0.553128
vt 0.875000 0.556643
vt 0.875000 0.750000
vt 0.125000 0.556769
vt 0.162949 0.553600
vt 0.193743 0.554428
vt 0.218999 0.552734
vt 0.262287 0.553976
vt 0.304716 0.551615
vt 0.342608 0.551298
vt 0.125000 0.750000
s 0
usemtl Material.050
f 2/1/1 1/2/1 3/3/1 4/4/1
f 4/5/2 3/6/2 6/7/2 8/8/2
f 7/9/3 5/10/3 1/2/3 2/1/3
f 5/10/4 14/11/4 13/12/4 12/13/4 11/14/4 10/15/4 9/16/4 6/17/4 3/18/4 1/2/4
f 8/19/5 20/20/5 19/21/5 18/22/5 17/23/5 16/24/5 15/25/5 7/9/5 2/1/5 4/26/5
f 7/9/6 15/25/6 14/11/6 5/10/6
f 15/25/7 16/24/7 13/12/7 14/11/7
f 16/24/8 17/23/8 12/13/8 13/12/8
f 17/23/9 18/22/9 11/14/9 12/13/9
f 18/22/10 19/21/10 10/15/10 11/14/10
f 19/21/11 20/20/11 9/16/11 10/15/11
f 20/20/12 8/19/12 6/17/12 9/16/12
