# Blender 4.2.1 LTS
# www.blender.org
mtllib desk_w100_break6.mtl
o desk_w100_break6
v -0.150000 0.033000 1.800000
v -0.150000 -0.033000 1.800000
v -0.150000 0.033000 -1.800000
v -0.150000 -0.033000 -1.800000
v 0.150000 0.033000 1.800000
v 0.150000 -0.033000 1.800000
v 0.150000 0.033000 -1.800000
v 0.150000 -0.033000 -1.800000
v 0.150000 -0.033000 1.208889
v 0.150000 0.024330 1.212109
v 0.139552 -0.033000 1.213319
v 0.150000 0.033000 1.213797
v 0.123867 0.033000 1.244741
v 0.137435 -0.033000 1.215826
v 0.122644 0.033000 1.246310
v 0.114129 -0.033000 1.245725
v 0.106468 0.033000 1.260950
v 0.112893 -0.033000 1.246843
v 0.105511 0.033000 1.261940
v 0.094654 -0.033000 1.265703
v 0.080319 0.033000 1.291942
v 0.092730 -0.033000 1.267994
v 0.079300 0.033000 1.293285
v 0.073326 -0.033000 1.293590
v 0.056305 0.033000 1.314039
v 0.071569 -0.033000 1.295176
v 0.055326 0.033000 1.315036
v 0.052927 -0.033000 1.314156
v 0.070703 0.033000 1.352640
v 0.072452 0.033000 1.353663
v 0.061384 -0.033000 1.352122
v 0.094700 -0.033000 1.371622
v 0.070616 0.033000 1.352072
v 0.059713 -0.033000 1.341313
v 0.062904 0.033000 1.336448
v 0.059124 -0.033000 1.340119
v 0.062608 0.033000 1.335166
v 0.053483 -0.033000 1.315694
v 0.150000 0.024971 1.381808
v 0.150000 0.033000 1.381614
v 0.111266 0.033000 1.373370
v 0.135780 -0.033000 1.380180
v 0.138856 -0.033000 1.380835
v 0.150000 -0.033000 1.382008
v 0.109258 0.033000 1.372999
v 0.097512 -0.033000 1.373099
vn -0.0000 1.0000 -0.0000
vn -0.0000 -0.0000 -1.0000
vn 1.0000 -0.0000 -0.0000
vn -0.0000 -1.0000 -0.0000
vn -1.0000 -0.0000 -0.0000
vn -0.0000 -0.0000 1.0000
vn 0.9789 -0.1370 -0.1513
vn 0.9423 -0.1038 -0.3182
vn 0.9532 -0.1116 -0.2811
vn 0.9402 -0.0724 -0.3329
vn 0.9386 -0.0725 -0.3374
vn 0.9547 -0.0452 -0.2942
vn 0.9610 -0.0528 -0.2713
vn 0.4891 -0.0717 -0.8693
vn 0.4787 -0.0766 -0.8746
vn 0.5041 -0.0644 -0.8613
vn 0.1629 -0.0148 -0.9865
vn 0.2019 -0.0224 -0.9792
vn 0.1047 -0.0034 -0.9945
vn 0.7393 -0.1208 0.6624
vn 0.6088 -0.0943 0.7877
vn 0.3898 -0.0516 0.9194
vn 0.7130 -0.0353 0.7003
vn 0.6864 -0.0486 0.7256
vn 0.6962 -0.0438 0.7165
vn 0.7380 -0.0832 0.6697
vn 0.7424 -0.0842 0.6647
vn 0.6894 -0.0866 0.7191
vn 0.6961 -0.0846 0.7130
vn 0.7326 -0.0632 0.6777
vn 0.7378 -0.0637 0.6720
vn 0.7752 -0.0815 0.6264
vn 0.7830 -0.0767 0.6172
vn 0.3116 -0.0569 -0.9485
vn 0.3413 -0.0622 -0.9379
vn 0.7259 -0.0997 0.6805
vn 0.7319 -0.1004 0.6740
vn 0.7676 -0.1182 0.6299
vn 0.7749 -0.1131 0.6219
vn 0.9399 -0.0296 -0.3400
vn 0.1981 -0.0275 -0.9798
vn 0.1919 -0.0299 -0.9810
vn 0.2081 -0.0236 -0.9778
vn 0.7580 -0.1246 0.6402
vt 0.625000 0.500000
vt 0.875000 0.500000
vt 0.875000 0.529055
vt 0.842722 0.529627
vt 0.841048 0.529653
vt 0.810377 0.530996
vt 0.808919 0.531067
vt 0.808846 0.531106
vt 0.802420 0.532191
vt 0.802174 0.532280
vt 0.796105 0.533678
vt 0.796921 0.533747
vt 0.816084 0.535189
vt 0.816932 0.535282
vt 0.837925 0.537365
vt 0.838723 0.537434
vt 0.852203 0.538451
vt 0.853223 0.538560
vt 0.875000 0.540709
vt 0.875000 0.750000
vt 0.625000 0.750000
vt 0.375000 0.750000
vt 0.625000 1.000000
vt 0.375000 1.000000
vt 0.375000 0.000000
vt 0.625000 0.000000
vt 0.625000 0.209291
vt 0.592160 0.209174
vt 0.375000 0.208951
vt 0.125000 0.500000
vt 0.375000 0.500000
vt 0.125000 0.750000
vt 0.125000 0.541049
vt 0.133706 0.540742
vt 0.135471 0.540568
vt 0.154893 0.538491
vt 0.155922 0.538414
vt 0.171121 0.537104
vt 0.172725 0.536945
vt 0.188895 0.535167
vt 0.190359 0.535057
vt 0.205894 0.533739
vt 0.205431 0.533632
vt 0.200730 0.531936
vt 0.200239 0.531853
vt 0.198847 0.531103
vt 0.171083 0.529748
vt 0.168740 0.529646
vt 0.136850 0.529154
vt 0.134286 0.529109
vt 0.125000 0.529027
vt 0.375000 0.250000
vt 0.625000 0.250000
vt 0.801822 0.551387
vt 0.219440 0.551508
vt 0.220284 0.554030
vt 0.801867 0.551519
vt 0.797973 0.555166
vt 0.219986 0.554309
vt 0.222835 0.560009
vt 0.798122 0.555465
vt 0.800939 0.551148
vt 0.202616 0.546958
vt 0.186265 0.544808
vt 0.759461 0.544581
vt 0.180638 0.544534
vt 0.753063 0.584180
vt 0.185914 0.583898
vt 0.180638 0.584932
vt 0.794445 0.560162
vt 0.222554 0.560367
vt 0.213140 0.564797
vt 0.793951 0.560395
vt 0.817770 0.572552
vt 0.205200 0.571674
vt 0.195990 0.576075
vt 0.817286 0.572783
vt 0.214027 0.565167
vt 0.805563 0.565238
vt 0.204228 0.571139
vt 0.805049 0.565551
vt 0.819525 0.546636
vt 0.204035 0.546613
vt 0.196614 0.576336
vt 0.825455 0.576199
vt 0.184845 0.583313
vt 0.824837 0.576566
vt 0.184711 0.544961
vt 0.818511 0.546550
vt 0.838070 0.544626
vt 0.838033 0.583787
vt 0.375000 0.220973
vt 0.594587 0.220959
vt 0.625000 0.220945
s 1
usemtl Material.052
f 1/1/1 5/2/1 40/3/1 41/4/1 45/5/1 30/6/1 29/7/1 33/8/1 35/9/1 37/10/1 27/11/1 25/12/1 23/13/1 21/14/1 19/15/1 17/16/1 15/17/1 13/18/1 12/19/1 7/20/1 3/21/1
f 4/22/2 3/21/2 7/23/2 8/24/2
f 8/25/3 7/26/3 12/27/3 10/28/3 9/29/3
f 6/30/4 2/31/4 4/22/4 8/32/4 9/33/4 11/34/4 14/35/4 16/36/4 18/37/4 20/38/4 22/39/4 24/40/4 26/41/4 28/42/4 38/43/4 36/44/4 34/45/4 31/46/4 32/47/4 46/48/4 42/49/4 43/50/4 44/51/4
f 2/31/5 1/1/5 3/21/5 4/22/5
f 6/52/6 5/53/6 1/1/6 2/31/6
f 29/54/7 31/55/7 34/56/8 33/57/9
f 35/58/10 36/59/11 38/60/12 37/61/13
f 30/62/14 32/63/15 31/55/16 29/54/16
f 43/64/17 39/65/18 44/66/19
f 10/67/20 11/68/21 9/69/22
f 27/70/23 28/71/23 26/72/24 25/73/25
f 19/74/26 20/75/27 18/76/28 17/77/29
f 25/73/25 26/72/24 24/78/30 23/79/31
f 23/79/31 24/78/30 22/80/32 21/81/33
f 33/57/9 34/56/8 36/59/11 35/58/10
f 45/82/34 46/83/35 32/63/15 30/62/14
f 17/77/29 18/76/28 16/84/36 15/85/37
f 15/85/37 16/84/36 14/86/38 13/87/39
f 21/81/33 22/80/32 20/75/27 19/74/26
f 37/61/13 38/60/12 28/71/40 27/70/40
f 39/65/18 43/64/17 42/88/41 41/89/42 40/90/43
f 13/87/39 14/86/38 11/68/21 10/67/20 12/91/44
f 41/89/42 42/88/41 46/83/35 45/82/34
f 44/92/3 39/93/3 40/94/3 5/53/3 6/52/3
