# Blender 4.2.1 LTS
# www.blender.org
mtllib desk_w100_break4.mtl
o desk_w100_break4
v 0.150000 0.033000 1.800000
v 0.150000 -0.033000 1.800000
v -0.150000 0.033000 1.800000
v -0.150000 -0.033000 1.800000
v 0.150000 0.033000 -1.063250
v -0.150000 0.033000 -0.984347
v 0.150000 -0.033000 -1.058858
v -0.150000 -0.033000 -0.982524
v -0.092806 0.033000 -1.034961
v -0.053312 0.033000 -1.034566
v -0.018208 0.033000 -1.050371
v 0.023297 0.033000 -1.036782
v 0.058350 0.033000 -1.064444
v 0.110492 0.033000 -1.069070
v 0.111130 -0.033000 -1.061307
v 0.065659 -0.033000 -1.056743
v 0.014744 -0.033000 -1.022745
v -0.037202 -0.033000 -1.040636
v -0.067508 -0.033000 -1.016232
v -0.104462 -0.033000 -1.028166
vn -0.0000 -0.0000 1.0000
vn -1.0000 -0.0000 -0.0000
vn 1.0000 -0.0000 -0.0000
vn -0.0000 1.0000 -0.0000
vn -0.0000 -1.0000 -0.0000
vn 0.1045 -0.0907 -0.9904
vn -0.0930 -0.1214 -0.9882
vn -0.5781 -0.1273 -0.8060
vn 0.3106 -0.2309 -0.9221
vn -0.5230 -0.0494 -0.8509
vn 0.1555 -0.2140 -0.9644
vn -0.6837 0.0127 -0.7297
vt 0.375000 0.750000
vt 0.625000 0.750000
vt 0.625000 1.000000
vt 0.375000 1.000000
vt 0.375000 0.000000
vt 0.625000 0.000000
vt 0.625000 0.193357
vt 0.375000 0.193231
vt 0.375000 0.551468
vt 0.625000 0.551163
vt 0.657923 0.550759
vt 0.701375 0.551080
vt 0.730586 0.553001
vt 0.765173 0.552058
vt 0.794427 0.553155
vt 0.827339 0.553128
vt 0.875000 0.556643
vt 0.875000 0.750000
vt 0.125000 0.556769
vt 0.162949 0.553600
vt 0.193743 0.554428
vt 0.218999 0.552734
vt 0.262287 0.553976
vt 0.304716 0.551615
vt 0.342608 0.551298
vt 0.125000 0.750000
s 0
usemtl Material.048
f 2/1/1 1/2/1 3/3/1 4/4/1
f 4/5/2 3/6/2 6/7/2 8/8/2
f 7/9/3 5/10/3 1/2/3 2/1/3
f 5/10/4 14/11/4 13/12/4 12/13/4 11/14/4 10/15/4 9/16/4 6/17/4 3/18/4 1/2/4
f 8/19/5 20/20/5 19/21/5 18/22/5 17/23/5 16/24/5 15/25/5 7/9/5 2/1/5 4/26/5
f 7/9/6 15/25/6 14/11/6 5/10/6
f 15/25/7 16/24/7 13/12/7 14/11/7
f 16/24/8 17/23/8 12/13/8 13/12/8
f 17/23/9 18/22/9 11/14/9 12/13/9
f 18/22/10 19/21/10 10/15/10 11/14/10
f 19/21/11 20/20/11 9/16/11 10/15/11
f 20/20/12 8/19/12 6/17/12 9/16/12
