# Blender 4.2.1 LTS
# www.blender.org
mtllib desk_w100_break7.mtl
o desk_w100_break7
v -0.150000 0.033000 1.800000
v -0.150000 -0.033000 1.800000
v -0.150000 0.033000 -1.800000
v -0.150000 -0.033000 -1.800000
v 0.150000 0.033000 1.800000
v 0.150000 -0.033000 1.800000
v 0.150000 0.033000 -1.800000
v 0.150000 -0.033000 -1.800000
v 0.150000 -0.033000 -1.172834
v 0.150000 0.032656 -1.157711
v 0.138035 -0.033000 -1.152029
v 0.150000 0.033000 -1.157436
v 0.121505 0.033000 -1.019055
v 0.135073 -0.033000 -1.137646
v 0.119405 0.033000 -1.008004
v 0.110890 -0.033000 -1.010407
v 0.102736 0.033000 -0.946134
v 0.109161 -0.033000 -1.003991
v 0.101092 0.033000 -0.939163
v 0.090236 -0.033000 -0.923730
v 0.075132 0.033000 -0.812366
v 0.087543 -0.033000 -0.910580
v 0.073384 0.033000 -0.802906
v 0.067409 -0.033000 -0.801654
v 0.049687 0.033000 -0.715192
v 0.064952 -0.033000 -0.792558
v 0.048007 0.033000 -0.708176
v 0.045607 -0.033000 -0.711784
v 0.055511 0.033000 -0.623101
v 0.056019 0.033000 -0.614073
v 0.046386 -0.033000 -0.702961
v 0.052239 -0.033000 -0.599016
v 0.063966 0.033000 -0.548039
v 0.053063 -0.033000 -0.592168
v 0.064116 0.033000 -0.544044
v 0.054797 -0.033000 -0.546165
v 0.067119 0.033000 -0.536836
v 0.089367 -0.033000 -0.463181
v 0.105046 0.033000 -0.455118
v 0.093301 -0.033000 -0.454706
v 0.150000 0.033000 -0.416274
v 0.108495 0.033000 -0.452501
v 0.133008 -0.033000 -0.424573
v 0.137313 -0.033000 -0.420816
v 0.150000 -0.033000 -0.415338
vn -0.0000 1.0000 -0.0000
vn -0.0000 -0.0000 -1.0000
vn 1.0000 -0.0000 -0.0000
vn 0.9831 -0.1141 0.1429
vn 0.9895 -0.0780 0.1213
vn -0.0000 -1.0000 -0.0000
vn -1.0000 -0.0000 -0.0000
vn -0.0000 -0.0000 1.0000
vn 0.9670 -0.1295 -0.2195
vn 0.9698 -0.1303 -0.2061
vn 0.9905 -0.1010 -0.0937
vn 0.9906 -0.1217 -0.0628
vn 0.9121 -0.1275 -0.3897
vn 0.9003 -0.1517 -0.4079
vn 0.9936 -0.0759 -0.0833
vn 0.9927 -0.0779 -0.0920
vn 0.9959 -0.0398 -0.0809
vn 0.9961 -0.0614 -0.0630
vn 0.5489 -0.0481 -0.8345
vn 0.6256 -0.0668 -0.7773
vn 0.3963 -0.0130 -0.9180
vn 0.9306 -0.1404 0.3379
vn 0.8612 -0.1141 0.4953
vn 0.9969 -0.0400 0.0681
vn 0.9961 -0.0405 0.0787
vn 0.9643 -0.0746 0.2539
vn 0.9695 -0.0556 0.2387
vn 0.9703 -0.1091 0.2161
vn 0.9712 -0.1103 0.2114
vn 0.9601 -0.1255 0.2498
vn 0.9651 -0.1132 0.2363
vn 0.9715 -0.0837 0.2217
vn 0.9720 -0.0838 0.2197
vn 0.9746 -0.1082 0.1959
vn 0.9786 -0.0906 0.1845
vn 0.7607 -0.1393 -0.6340
vn 0.7804 -0.1427 -0.6087
vn 0.9661 -0.1327 0.2215
vn 0.9660 -0.1327 0.2218
vn 0.9682 -0.1547 0.1968
vn 0.9727 -0.1367 0.1874
vn 0.6375 -0.0871 -0.7655
vn 0.6198 -0.0992 -0.7785
vt 0.625000 0.500000
vt 0.875000 0.500000
vt 0.875000 0.653908
vt 0.840413 0.656424
vt 0.837539 0.656605
vt 0.805932 0.662280
vt 0.803430 0.662781
vt 0.803305 0.663058
vt 0.796683 0.667644
vt 0.796259 0.668271
vt 0.790006 0.674179
vt 0.791406 0.674666
vt 0.811153 0.680757
vt 0.812610 0.681414
vt 0.834243 0.690220
vt 0.835613 0.690704
vt 0.849504 0.695000
vt 0.851255 0.695768
vt 0.875000 0.705378
vt 0.875000 0.750000
vt 0.625000 0.750000
vt 0.375000 0.750000
vt 0.625000 1.000000
vt 0.375000 1.000000
vt 0.375000 0.000000
vt 0.625000 0.000000
vt 0.625000 0.044623
vt 0.623696 0.044603
vt 0.375000 0.043553
vt 0.125000 0.500000
vt 0.375000 0.500000
vt 0.125000 0.750000
vt 0.125000 0.706447
vt 0.134971 0.705002
vt 0.137439 0.704003
vt 0.157592 0.695167
vt 0.159032 0.694722
vt 0.174804 0.689148
vt 0.177047 0.688235
vt 0.193826 0.680670
vt 0.195873 0.680039
vt 0.211994 0.674429
vt 0.211345 0.673817
vt 0.206468 0.666598
vt 0.205781 0.666123
vt 0.204336 0.662928
vt 0.175527 0.657165
vt 0.172249 0.656577
vt 0.139160 0.654484
vt 0.135573 0.654223
vt 0.125000 0.653843
vt 0.375000 0.250000
vt 0.625000 0.250000
vt 0.782017 0.551391
vt 0.234612 0.551505
vt 0.235435 0.553965
vt 0.782088 0.551605
vt 0.780592 0.551006
vt 0.218203 0.547067
vt 0.778317 0.555136
vt 0.235043 0.554331
vt 0.237822 0.559890
vt 0.778558 0.555619
vt 0.203266 0.544801
vt 0.816657 0.544558
vt 0.197244 0.544508
vt 0.813425 0.584210
vt 0.202923 0.583906
vt 0.197244 0.585019
vt 0.774996 0.560169
vt 0.237452 0.560362
vt 0.228271 0.564682
vt 0.774199 0.560544
vt 0.796938 0.572522
vt 0.221158 0.571697
vt 0.212176 0.575989
vt 0.796157 0.572895
vt 0.229437 0.565168
vt 0.785446 0.565235
vt 0.219881 0.570994
vt 0.784616 0.565741
vt 0.798593 0.546635
vt 0.220070 0.546613
vt 0.212996 0.576333
vt 0.804069 0.576204
vt 0.201518 0.583137
vt 0.803073 0.576795
vt 0.201223 0.545002
vt 0.796957 0.546495
vt 0.816597 0.584196
vt 0.375000 0.096157
vt 0.625000 0.096092
s 1
usemtl Material.056
f 1/1/1 5/2/1 41/3/1 42/4/1 39/5/1 37/6/1 35/7/1 33/8/1 30/9/1 29/10/1 27/11/1 25/12/1 23/13/1 21/14/1 19/15/1 17/16/1 15/17/1 13/18/1 12/19/1 7/20/1 3/21/1
f 4/22/2 3/21/2 7/23/2 8/24/2
f 8/25/3 7/26/3 12/27/4 10/28/5 9/29/3
f 6/30/6 2/31/6 4/22/6 8/32/6 9/33/6 11/34/6 14/35/6 16/36/6 18/37/6 20/38/6 22/39/6 24/40/6 26/41/6 28/42/6 31/43/6 32/44/6 34/45/6 36/46/6 38/47/6 40/48/6 43/49/6 44/50/6 45/51/6
f 2/31/7 1/1/7 3/21/7 4/22/7
f 6/52/8 5/53/8 1/1/8 2/31/8
f 35/54/9 36/55/10 34/56/11 33/57/12
f 37/58/13 38/59/14 36/55/10 35/54/9
f 30/60/15 32/61/16 31/62/17 29/63/18
f 44/64/19 41/65/20 45/66/21
f 10/67/5 11/68/22 9/69/23
f 27/70/24 28/71/25 26/72/26 25/73/27
f 19/74/28 20/75/29 18/76/30 17/77/31
f 25/73/27 26/72/26 24/78/32 23/79/33
f 23/79/33 24/78/32 22/80/34 21/81/35
f 33/57/12 34/56/11 32/61/16 30/60/15
f 39/82/36 40/83/37 38/59/14 37/58/13
f 17/77/31 18/76/30 16/84/38 15/85/39
f 15/85/39 16/84/38 14/86/40 13/87/41
f 21/81/35 22/80/34 20/75/29 19/74/28
f 29/63/18 31/62/17 28/71/25 27/70/24
f 41/65/20 44/64/19 43/88/42 42/89/43
f 13/87/41 14/86/40 11/68/22 10/67/5 12/90/4
f 42/89/43 43/88/42 40/83/37 39/82/36
f 45/91/3 41/92/3 5/53/3 6/52/3
