# Blender 4.2.1 LTS
# www.blender.org
mtllib desk_w100_break2.mtl
o desk_w100_break2
v -0.150000 0.033000 1.800000
v -0.150000 -0.033000 1.800000
v -0.150000 0.033000 -1.800000
v -0.150000 -0.033000 -1.800000
v 0.150000 0.033000 1.800000
v 0.150000 -0.033000 1.800000
v 0.150000 0.033000 -1.800000
v 0.150000 -0.033000 -1.800000
v -0.150000 -0.033000 -1.012566
v 0.150000 -0.033000 -0.953831
v -0.150000 0.033000 -1.012561
v 0.150000 0.033000 -0.948617
v 0.150000 -0.000201 -0.962356
v 0.150000 0.013952 -0.955152
v 0.109942 0.033000 -1.012715
v 0.050159 0.033000 -0.996660
v -0.001323 0.033000 -1.036107
v -0.058109 0.033000 -1.010285
v -0.090509 0.033000 -1.023008
v -0.133921 0.033000 -1.016605
v -0.127568 -0.033000 -1.026008
v -0.087239 -0.033000 -1.029423
v -0.058756 -0.033000 -1.022628
v -0.004368 -0.033000 -1.046758
v 0.042823 -0.033000 -1.005511
v 0.101263 -0.033000 -1.023150
v 0.137395 -0.033000 -0.956872
v -0.150000 0.003476 -1.018300
v -0.150000 -0.011820 -1.010008
v -0.150000 -0.033000 -0.954024
v 0.150000 -0.033000 -0.905263
v 0.150000 0.033000 -0.905355
v -0.150000 0.033000 -0.951282
v 0.150000 0.001729 -0.915741
v -0.117530 0.033000 -0.955307
v -0.064914 0.033000 -0.927613
v -0.012569 0.033000 -0.951439
v 0.038559 0.033000 -0.914563
v 0.095405 0.033000 -0.935458
v 0.130492 0.033000 -0.901353
v 0.128495 -0.033000 -0.915723
v 0.095608 -0.033000 -0.958299
v 0.052426 -0.033000 -0.942018
v 0.002178 -0.033000 -0.969233
v -0.048405 -0.033000 -0.952124
v -0.096704 -0.033000 -0.942436
v -0.150000 -0.011764 -0.952616
v -0.150000 0.006766 -0.962404
vn -0.0000 1.0000 -0.0000
vn -0.0000 -0.0000 -1.0000
vn 1.0000 -0.0000 -0.0000
vn -0.0000 -1.0000 -0.0000
vn -1.0000 -0.0000 -0.0000
vn -0.0000 -0.0000 1.0000
vn 0.2335 -0.0674 0.9700
vn 0.4737 -0.0616 0.8785
vn 0.2992 -0.0921 0.9497
vn -0.1177 -0.1148 0.9864
vn -0.0994 -0.1273 0.9869
vn -0.3279 -0.1267 0.9362
vn -0.2284 -0.1768 0.9574
vn 0.4043 -0.1677 0.8991
vn 0.4037 -0.1682 0.8993
vn 0.4084 -0.1638 0.8980
vn -0.6311 -0.0638 0.7731
vn -0.6554 -0.0908 0.7498
vn -0.6327 -0.0655 0.7716
vn 0.2692 -0.1719 0.9476
vn 0.2853 -0.1585 0.9452
vn 0.2710 -0.1704 0.9474
vn -0.8627 0.0654 0.5015
vn -0.8773 0.0398 0.4783
vn -0.8601 0.0697 0.5053
vn -0.2338 -0.0766 0.9693
vn 0.2439 -0.0001 0.9698
vn 0.3995 -0.1723 0.9004
vn -0.6078 -0.0388 0.7932
vn 0.2550 -0.1836 0.9494
vn -0.8442 0.0952 0.5276
vn 0.1547 0.1039 -0.9825
vn 0.7369 0.1741 -0.6532
vn -0.3318 0.3048 -0.8928
vn 0.4952 0.3758 -0.7833
vn -0.3616 0.2058 -0.9093
vn 0.1740 0.1352 -0.9754
vn 0.1400 0.0558 -0.9886
vn 0.1227 0.0162 -0.9923
vn 0.0877 -0.0625 -0.9942
vt 0.625000 0.500000
vt 0.875000 0.500000
vt 0.875000 0.687872
vt 0.858744 0.687594
vt 0.829504 0.689962
vt 0.782132 0.688511
vt 0.739525 0.691072
vt 0.695905 0.689417
vt 0.652058 0.691341
vt 0.625000 0.691061
vt 0.375000 0.750000
vt 0.625000 0.750000
vt 0.625000 1.000000
vt 0.375000 1.000000
vt 0.375000 0.000000
vt 0.625000 0.000000
vt 0.625000 0.059124
vt 0.552849 0.058670
vt 0.499239 0.058170
vt 0.375000 0.058762
vt 0.125000 0.500000
vt 0.375000 0.500000
vt 0.375000 0.691252
vt 0.330587 0.690447
vt 0.290337 0.691120
vt 0.248185 0.692308
vt 0.206312 0.690418
vt 0.170326 0.691549
vt 0.142921 0.688592
vt 0.125000 0.687865
vt 0.525629 0.691834
vt 0.455441 0.691154
vt 0.375000 0.250000
vt 0.625000 0.250000
vt 0.638399 0.695598
vt 0.375000 0.695317
vt 0.356306 0.696251
vt 0.625000 0.695317
vt 0.674576 0.696042
vt 0.701576 0.695159
vt 0.748898 0.696952
vt 0.791799 0.694212
vt 0.841618 0.695327
vt 0.875000 0.690876
vt 0.875000 0.750000
vt 0.125000 0.691238
vt 0.135504 0.691449
vt 0.165614 0.696052
vt 0.214314 0.694827
vt 0.253640 0.697692
vt 0.298963 0.696016
vt 0.322700 0.696488
vt 0.125000 0.750000
vt 0.455227 0.695139
vt 0.513166 0.695715
vt 0.375000 0.062135
vt 0.506548 0.061407
vt 0.625000 0.062128
s 1
usemtl Material.044
f 1/1/1 5/2/1 32/3/1 40/4/1 39/5/1 38/6/1 37/7/1 36/8/1 35/9/1 33/10/1
f 4/11/2 3/12/2 7/13/2 8/14/2
f 8/15/3 7/16/3 12/17/3 14/18/3 13/19/3 10/20/3
f 6/21/4 2/22/4 30/23/4 46/24/4 45/25/4 44/26/4 43/27/4 42/28/4 41/29/4 31/30/4
f 2/22/5 1/1/5 33/10/5 48/31/5 47/32/5 30/23/5
f 6/33/6 5/34/6 1/1/6 2/22/6
f 20/35/7 9/36/8 21/37/9
f 11/38/1 20/35/1 19/39/1 18/40/1 17/41/1 16/42/1 15/43/1 12/44/1 7/45/1 3/12/1
f 10/46/4 27/47/4 26/48/4 25/49/4 24/50/4 23/51/4 22/52/4 21/37/4 9/36/4 4/11/4 8/53/4
f 9/36/5 29/54/5 28/55/5 11/38/5 3/12/5 4/11/5
f 31/56/3 34/57/3 32/58/3 5/34/3 6/33/3
f 19/39/10 21/37/9 22/52/11
f 18/40/12 22/52/11 23/51/13
f 18/40/14 24/50/15 17/41/16
f 17/41/17 24/50/18 25/49/19
f 16/42/20 25/49/21 26/48/22
f 15/43/23 26/48/24 27/47/25
f 12/44/26 27/47/26 10/46/26
f 20/35/7 11/38/27 9/36/8
f 19/39/10 20/35/7 21/37/9
f 18/40/12 19/39/10 22/52/11
f 18/40/14 23/51/28 24/50/15
f 16/42/29 17/41/17 25/49/19
f 15/43/30 16/42/20 26/48/22
f 12/44/31 15/43/23 27/47/25
f 31/30/32 41/29/32 40/4/32 32/3/32
f 41/29/33 42/28/33 39/5/33 40/4/33
f 42/28/34 43/27/34 38/6/34 39/5/34
f 43/27/35 44/26/35 37/7/35 38/6/35
f 44/26/36 45/25/36 36/8/36 37/7/36
f 45/25/37 46/24/38 35/9/39 36/8/37
f 46/24/38 30/23/40 33/10/40 35/9/39
