# Blender 4.2.1 LTS
# www.blender.org
mtllib desk_w145_break6.mtl
o desk_w145_break6
v 0.217500 0.033000 -1.800000
v 0.217500 -0.033000 -1.800000
v 0.217500 0.033000 1.800000
v 0.217500 -0.033000 1.800000
v -0.217500 0.033000 -1.800000
v -0.217500 -0.033000 -1.800000
v -0.217500 0.033000 1.800000
v -0.217500 -0.033000 1.800000
v -0.217500 -0.033000 -1.159568
v -0.217500 -0.033000 -0.572753
v -0.217500 0.033000 -0.586928
v -0.217500 0.033000 -1.158696
v -0.217500 0.008661 -0.576167
v -0.217500 -0.007923 -0.569114
v -0.217500 -0.011520 -1.157927
v -0.217500 0.003600 -1.160853
v -0.180299 0.033000 -1.128419
v -0.146306 0.033000 -1.060121
v -0.139183 0.033000 -1.004932
v -0.132458 0.033000 -0.933828
v -0.153697 0.033000 -0.860520
v -0.176964 0.033000 -0.754547
v -0.191904 0.033000 -0.702838
v -0.205472 -0.033000 -0.592254
v -0.183389 -0.033000 -0.700597
v -0.166108 -0.033000 -0.768938
v -0.147722 -0.033000 -0.861687
v -0.130058 -0.033000 -0.930464
v -0.135403 -0.033000 -1.018972
v -0.136986 -0.033000 -1.058143
v -0.168554 -0.033000 -1.128803
v -0.204813 -0.033000 -1.154461
vn -0.0000 1.0000 -0.0000
vn -0.0000 -0.0000 1.0000
vn -1.0000 -0.0000 -0.0000
vn -0.0000 -1.0000 -0.0000
vn 1.0000 -0.0000 -0.0000
vn -0.0000 -0.0000 -1.0000
vn -0.9498 -0.1510 -0.2740
vn -0.9247 -0.1347 -0.3560
vn -0.8458 -0.1120 -0.5216
vn -0.9612 -0.1368 -0.2393
vn -0.9657 -0.1246 -0.2277
vn -0.9638 -0.1163 -0.2398
vn -0.9694 -0.1043 -0.2223
vn -0.9670 -0.0891 -0.2385
vn -0.9956 -0.0480 -0.0802
vn -0.9702 -0.0755 -0.2300
vn -0.9930 -0.0671 0.0974
vn -0.9946 -0.0494 -0.0913
vn -0.9551 -0.1217 0.2702
vn -0.9930 -0.0954 0.0702
vn -0.7700 -0.1286 0.6249
vn -0.9669 -0.1300 0.2194
vn -0.7572 -0.1229 0.6415
vn -0.5998 -0.0641 0.7976
vn -0.5032 -0.0584 0.8622
vn -0.3734 -0.0123 0.9276
vt 0.625000 0.500000
vt 0.875000 0.500000
vt 0.875000 0.544535
vt 0.853620 0.546638
vt 0.834084 0.551380
vt 0.829990 0.555213
vt 0.826125 0.560151
vt 0.838331 0.565242
vt 0.851703 0.572601
vt 0.860290 0.576192
vt 0.875000 0.584241
vt 0.875000 0.750000
vt 0.625000 0.750000
vt 0.375000 0.750000
vt 0.625000 1.000000
vt 0.375000 1.000000
vt 0.375000 0.000000
vt 0.625000 0.000000
vt 0.625000 0.165759
vt 0.532807 0.165012
vt 0.469989 0.164522
vt 0.375000 0.164775
vt 0.125000 0.500000
vt 0.375000 0.500000
vt 0.125000 0.750000
vt 0.125000 0.585225
vt 0.131912 0.583871
vt 0.144604 0.576347
vt 0.154536 0.571602
vt 0.165102 0.565161
vt 0.175254 0.560384
vt 0.172182 0.554238
vt 0.171273 0.551518
vt 0.153130 0.546611
vt 0.132291 0.544829
vt 0.125000 0.544474
vt 0.375000 0.250000
vt 0.625000 0.250000
vt 0.375000 0.205526
vt 0.456362 0.205412
vt 0.513638 0.205615
vt 0.625000 0.205465
s 1
usemtl Material.051
f 1/1/1 5/2/1 12/3/1 17/4/1 18/5/1 19/6/1 20/7/1 21/8/1 22/9/1 23/10/1 11/11/1 7/12/1 3/13/1
f 4/14/2 3/13/2 7/15/2 8/16/2
f 8/17/3 7/18/3 11/19/3 13/20/3 14/21/3 10/22/3
f 6/23/4 2/24/4 4/14/4 8/25/4 10/26/4 24/27/4 25/28/4 26/29/4 27/30/4 28/31/4 29/32/4 30/33/4 31/34/4 32/35/4 9/36/4
f 2/24/5 1/1/5 3/13/5 4/14/5
f 6/37/6 5/38/6 1/1/6 2/24/6
f 9/39/3 15/40/3 16/41/3 12/42/3 5/38/3 6/37/3
f 11/11/7 24/27/8 10/26/9
f 23/10/10 25/28/11 24/27/8
f 22/9/12 26/29/13 25/28/11
f 21/8/14 26/29/13 22/9/12
f 20/7/15 27/30/16 21/8/14
f 19/6/17 28/31/18 20/7/15
f 18/5/19 29/32/20 19/6/17
f 18/5/19 31/34/21 30/33/22
f 17/4/23 31/34/21 18/5/19
f 12/3/24 32/35/25 17/4/23
f 11/11/7 23/10/10 24/27/8
f 23/10/10 22/9/12 25/28/11
f 21/8/14 27/30/16 26/29/13
f 20/7/15 28/31/18 27/30/16
f 19/6/17 29/32/20 28/31/18
f 18/5/19 30/33/22 29/32/20
f 17/4/23 32/35/25 31/34/21
f 12/3/24 9/36/26 32/35/25
