# Blender 4.2.1 LTS
# www.blender.org
mtllib desk_w145_break2.mtl
o desk_w145_break2
v -0.217499 0.033000 1.800000
v -0.217499 -0.033000 1.800000
v -0.217500 0.033000 -1.800000
v -0.217500 -0.033000 -1.800000
v 0.217500 -0.033000 1.800000
v -0.217500 -0.033000 -1.012566
v 0.217500 -0.033000 -0.953831
v -0.217500 0.033000 -1.012561
v 0.217500 0.033000 -0.948617
v 0.217500 -0.000201 -0.962356
v 0.217500 0.013952 -0.955152
v 0.159416 0.033000 -1.012715
v 0.072731 0.033000 -0.996660
v -0.001918 0.033000 -1.036107
v -0.084258 0.033000 -1.010285
v -0.131239 0.033000 -1.023008
v -0.194186 0.033000 -1.016605
v -0.184973 -0.033000 -1.026008
v -0.126497 -0.033000 -1.029423
v -0.085196 -0.033000 -1.022628
v -0.006333 -0.033000 -1.046758
v 0.062093 -0.033000 -1.005511
v 0.146831 -0.033000 -1.023150
v 0.199222 -0.033000 -0.956872
v -0.217500 0.003476 -1.018300
v -0.217500 -0.011820 -1.010008
v -0.217500 -0.033000 -0.954024
v 0.217500 -0.033000 -0.905263
v 0.217500 0.033000 -0.905355
v -0.217500 0.033000 -0.951282
v 0.217500 0.001729 -0.915741
v -0.170419 0.033000 -0.955307
v -0.094125 0.033000 -0.927613
v -0.018226 0.033000 -0.951439
v 0.055910 0.033000 -0.914563
v 0.138337 0.033000 -0.935458
v 0.189214 0.033000 -0.901353
v 0.186318 -0.033000 -0.915723
v 0.138632 -0.033000 -0.958299
v 0.076017 -0.033000 -0.942018
v 0.003158 -0.033000 -0.969233
v -0.070187 -0.033000 -0.952124
v -0.140221 -0.033000 -0.942436
v -0.217500 -0.011764 -0.952616
v -0.217500 0.006766 -0.962404
v -0.203492 0.025655 -0.445826
v -0.203492 0.025655 -0.461632
v 0.208088 -0.001960 1.783467
v 0.207787 -0.031630 0.877181
v 0.207787 -0.031630 0.868775
v 0.208247 -0.005843 0.843065
v 0.213910 -0.018736 0.855920
v 0.200948 -0.017506 0.824798
v 0.192593 -0.017500 0.787500
v 0.195698 -0.017500 0.752500
v 0.195870 -0.017500 0.717500
v 0.200772 -0.015971 0.682795
v 0.204265 -0.026618 0.653463
v 0.205651 -0.030710 0.606510
v 0.205651 -0.030710 0.583911
v 0.211744 -0.029177 0.837996
v 0.212895 -0.003285 0.671325
v 0.014776 0.016644 1.788041
v 0.024627 0.027740 1.780303
v 0.054022 0.016644 1.794861
v 0.043370 0.027740 1.780303
v 0.200817 0.017500 1.777644
v 0.205123 0.017500 0.848895
v 0.215863 0.017500 0.866395
v 0.199211 0.017500 0.822500
v 0.199600 0.017500 0.787500
v 0.202256 0.017500 0.752500
v 0.206172 0.015288 0.720848
v 0.207961 0.002147 0.694659
v 0.207092 -0.017500 -0.486635
v 0.207092 -0.017500 -0.492781
v 0.171474 -0.025251 -1.781366
v 0.208007 -0.029029 -1.748567
v 0.191861 -0.015473 -1.766418
v 0.175715 -0.001918 -1.786818
v 0.216576 -0.005696 -1.751470
v 0.202282 0.017500 -0.479548
v 0.202282 0.017500 -0.498185
v 0.200031 0.017500 -1.775657
v -0.217500 0.033000 -0.476243
v -0.217500 0.033000 -0.421294
v -0.213714 0.033000 -0.425356
v -0.208717 0.033000 -0.431912
v -0.202482 0.033000 -0.462651
v -0.202482 0.033000 -0.451170
v -0.201942 0.033000 -0.442806
v 0.012463 0.033000 1.788203
v 0.021457 0.033000 1.782023
v -0.005452 0.033000 1.795464
v -0.013561 0.033000 1.800000
v 0.071005 0.033000 1.800000
v 0.069293 0.033000 1.798825
v 0.056195 0.033000 1.792786
v 0.042927 0.033000 1.780552
v 0.048212 0.033000 1.788754
v 0.210326 0.033000 1.762924
v 0.196530 0.033000 1.772023
v 0.178376 0.033000 1.795813
v 0.177055 0.033000 1.800000
v 0.180884 0.033000 1.790519
v 0.025175 0.033000 1.780552
v 0.200902 0.033000 -0.475329
v 0.200902 0.033000 -0.486035
v 0.200225 0.033000 -0.502931
v 0.213880 0.033000 0.868489
v 0.211560 0.033000 0.860739
v 0.209723 0.033000 -0.465275
v 0.217500 0.033000 1.757762
v 0.217500 0.033000 0.872840
v 0.214114 0.033000 -0.458435
v 0.214044 0.033000 0.718106
v 0.217500 0.033000 0.714823
v 0.217500 0.033000 -0.457315
v 0.217500 0.033000 -0.512767
v 0.202282 0.033000 0.836283
v 0.202223 0.033000 0.823672
v 0.204088 0.033000 0.752429
v 0.202436 0.033000 0.804548
v 0.205182 0.033000 0.787500
v 0.206180 0.033000 0.736565
v 0.206090 0.033000 0.726435
v 0.206053 0.033000 0.776018
v 0.205576 0.033000 0.850989
v 0.190771 0.033000 -1.800000
v 0.161920 -0.033000 -1.800000
v 0.167104 -0.015200 -1.800000
v 0.167142 -0.015060 -1.800000
v 0.167150 -0.015151 -1.800000
v 0.173267 0.003688 -1.800000
v 0.182121 0.018662 -1.800000
v 0.182231 0.018798 -1.800000
v 0.182298 0.018903 -1.800000
v 0.217499 -0.033000 -1.746687
v 0.217499 -0.023501 -1.747980
v 0.217499 -0.005348 -1.751369
v 0.217499 -0.006648 -1.751134
v 0.217499 -0.003944 -1.752039
v 0.217499 0.016474 -1.764903
v 0.217499 -0.016855 -1.752858
v 0.217499 0.027191 -1.770969
v 0.217499 0.033000 -1.773800
v 0.196891 -0.033000 0.737000
v 0.194825 -0.033000 0.787500
v 0.195444 -0.033000 0.702000
v 0.199480 -0.033000 0.808284
v 0.198064 -0.033000 0.752500
v 0.196987 -0.033000 0.717500
v 0.198038 -0.033000 0.682658
v 0.199253 -0.033000 0.662854
v 0.206172 -0.033000 0.856532
v 0.206979 -0.033000 0.875701
v 0.206979 -0.033000 0.867920
v 0.199913 -0.033000 0.824798
v 0.204082 -0.033000 0.607357
v 0.202431 -0.033000 0.650791
v 0.208038 -0.033000 0.618805
v 0.207434 -0.033000 0.877935
v 0.204041 -0.033000 0.582938
v 0.214861 -0.033000 0.625159
v 0.212199 -0.033000 0.841764
v 0.217500 -0.033000 0.882127
v 0.217500 -0.033000 0.583918
v 0.217500 -0.033000 -0.479759
v 0.217500 -0.033000 -0.500905
v 0.217128 -0.033000 -0.480123
v 0.214515 -0.033000 -0.497656
v 0.212199 -0.033000 0.847644
v 0.211744 -0.033000 0.837996
v 0.209620 -0.033000 0.835399
v 0.210393 -0.033000 0.644213
v 0.211636 -0.033000 0.631719
v 0.211636 -0.033000 0.631464
v 0.208189 -0.033000 -0.488101
v 0.208189 -0.033000 -0.491810
v 0.209265 -0.033000 0.878496
v -0.217500 0.020105 -0.432782
v -0.217500 0.016315 -0.436424
v -0.217500 0.016278 -0.472000
v -0.015180 0.020484 1.800000
v -0.014823 0.017429 1.800000
v 0.039136 0.003388 1.800000
v 0.053597 0.010175 1.800000
v 0.062167 0.017779 1.800000
v 0.187885 0.020123 1.800000
v 0.182001 0.026716 1.800000
v 0.189988 0.016141 1.800000
v 0.206813 -0.010352 1.800000
v 0.205109 -0.008844 1.800000
v 0.217500 -0.026138 1.800000
v 0.014340 -0.004005 1.800000
v -0.005831 -0.005156 1.800000
v 0.205838 0.033000 -1.781047
v 0.201154 0.033000 -1.787167
v 0.212145 0.033000 -1.777375
v 0.166864 -0.033000 -1.787376
v 0.189296 -0.033000 -1.762647
v 0.170128 -0.033000 -1.779826
v 0.204358 -0.033000 -1.750239
v 0.211305 -0.033000 -1.747561
v 0.207319 -0.033000 -1.748268
v 0.217500 -0.025442 0.878463
v 0.217500 -0.025442 0.874168
v 0.217500 -0.019659 0.647095
v 0.217500 -0.023936 0.644289
v 0.217500 -0.024717 0.638122
v 0.217500 -0.024717 0.637996
v 0.217500 -0.031841 0.622519
v 0.217500 -0.029573 0.612541
v 0.217500 -0.030948 0.584685
v 0.217500 -0.029573 0.604450
v 0.217500 -0.005994 -0.472558
v 0.217500 -0.017500 -0.476437
v 0.217500 -0.028980 -0.500931
v 0.217500 -0.017500 -0.502402
v 0.217500 0.022357 0.709170
v 0.217500 0.024307 0.712499
v 0.217500 0.017500 -0.462205
v 0.217500 0.018104 -0.461907
v 0.217500 0.017769 -0.462104
v 0.217500 0.016244 -0.508175
v 0.217500 0.032257 -0.512484
v 0.217500 -0.012669 1.787602
v 0.217500 -0.007891 1.779304
v 0.217500 0.006697 1.771742
v 0.217500 0.017500 0.868167
v 0.217500 0.021463 0.869507
v 0.217500 0.016731 1.766032
v 0.217500 0.002473 0.675446
v 0.217500 0.003405 0.683849
v 0.217500 -0.009258 0.659277
v 0.217500 0.008441 0.689718
v 0.217500 -0.003197 -0.503365
v 0.217500 -0.018800 0.862162
v 0.217500 -0.012050 0.861351
vn -0.0000 1.0000 -0.0000
vn -0.0000 -0.0000 -1.0000
vn 1.0000 -0.0000 -0.0000
vn -0.0000 -1.0000 -0.0000
vn -1.0000 -0.0000 -0.0000
vn -0.0000 -0.0000 1.0000
vn 0.1747 -0.0701 0.9821
vn 0.3366 -0.0614 0.9396
vn 0.2163 -0.0963 0.9716
vn -0.0839 -0.1131 0.9900
vn -0.0770 -0.1250 0.9892
vn -0.2241 -0.1364 0.9650
vn -0.1597 -0.1793 0.9707
vn 0.2909 -0.1763 0.9404
vn 0.2919 -0.1750 0.9403
vn 0.2948 -0.1714 0.9401
vn -0.4934 -0.0768 0.8664
vn -0.5135 -0.1031 0.8519
vn -0.4870 -0.0687 0.8707
vn 0.1918 -0.1724 0.9662
vn 0.2011 -0.1620 0.9661
vn 0.1881 -0.1766 0.9661
vn -0.7639 0.0809 0.6402
vn -0.7835 0.0515 0.6193
vn -0.7565 0.0916 0.6476
vn -0.1636 -0.0777 0.9835
vn 0.1709 -0.0001 0.9853
vn 0.2878 -0.1800 0.9406
vn -0.4668 -0.0432 0.8833
vn 0.1789 -0.1868 0.9660
vn -0.7356 0.1203 0.6666
vn 0.1074 0.1046 -0.9887
vn 0.6009 0.2059 -0.7724
vn -0.2357 0.3140 -0.9197
vn 0.3658 0.4026 -0.8391
vn -0.2584 0.2132 -0.9422
vn -0.1170 0.1875 -0.9753
vn -0.0296 0.1699 -0.9850
vn 0.0995 0.0642 -0.9930
vn 0.0827 0.0090 -0.9965
vn 0.0606 -0.0626 -0.9962
vn -0.6987 0.4850 -0.5260
vn -0.6252 0.5192 -0.5828
vn -0.6613 0.5033 -0.5562
vn -0.7067 0.4807 -0.5191
vn -0.5555 0.8315 -0.0006
vn -0.9890 0.1469 0.0150
vn -0.6606 0.1867 0.7272
vn 0.6124 0.5244 0.5916
vn 0.6796 0.4929 0.5433
vn 0.7251 0.5419 0.4250
vn 0.6551 0.6059 0.4514
vn 0.8720 -0.4736 0.1237
vn 0.8028 -0.5948 -0.0421
vn 0.7745 -0.6192 -0.1296
vn 0.8711 -0.4906 -0.0215
vn 0.3654 -0.4088 -0.8362
vn 0.8652 -0.4610 0.1972
vn 0.6164 -0.7449 -0.2554
vn 0.9916 0.1217 -0.0448
vn 0.9996 -0.0065 -0.0287
vn 0.9509 0.0582 -0.3039
vn 0.9797 0.0954 -0.1765
vn 0.9923 0.1180 0.0382
vn 0.9971 -0.0502 0.0571
vn 0.9993 -0.0105 0.0355
vn 0.9841 -0.1592 0.0788
vn 0.9959 0.0896 -0.0129
vn 0.9741 -0.1907 0.1211
vn 0.8934 -0.3883 0.2258
vn 0.9903 -0.1109 0.0837
vn 0.8313 -0.4381 0.3420
vn 0.8137 -0.4671 0.3461
vn 0.9499 -0.2697 0.1580
vn 0.8214 -0.5703 -0.0007
vn 0.9963 -0.0486 -0.0714
vn 0.9212 0.0402 -0.3871
vn 0.8861 0.1355 -0.4433
vn 0.7500 -0.0323 -0.6607
vn 0.9191 0.1455 -0.3663
vn 0.6932 -0.5474 0.4688
vn 0.7024 -0.5618 0.4370
vn 0.6608 -0.6537 0.3688
vn 0.6800 -0.5985 0.4235
vn 0.6818 -0.5961 0.4241
vn 0.6259 -0.6559 0.4219
vn 0.6391 -0.7014 0.3157
vn 0.2702 -0.9357 -0.2267
vn -0.0681 -0.3489 0.9347
vn 0.0487 -0.9984 0.0272
vn 0.0528 0.4026 0.9138
vn 0.1808 0.3451 0.9210
vn 0.3237 0.1440 0.9351
vn 0.2208 0.3004 0.9279
vn 0.4663 0.0452 0.8835
vn 0.3892 0.0312 0.9206
vn 0.5525 0.0613 0.8312
vn -0.2777 0.5348 0.7981
vn -0.4031 0.4298 0.8079
vn -0.1614 0.5090 0.8455
vn -0.0828 0.7048 0.7045
vn -0.7215 0.0022 0.6924
vn -0.6011 0.1238 0.7895
vn -0.0000 -0.0472 0.9989
vn -0.4837 0.3252 0.8126
vn -0.4694 0.2317 0.8520
vn 0.7357 0.5696 0.3663
vn 0.7627 0.6003 0.2408
vn 0.7224 0.5556 0.4118
vn 0.8043 0.4524 0.3853
vn 0.6634 0.4617 0.5888
vn 0.7487 0.5099 0.4236
vn 0.6288 0.4761 0.6148
vn 0.7109 0.5439 0.4459
vn 0.5399 0.4093 0.7355
vn 0.5321 0.4000 0.7462
vn 0.5263 0.3932 0.7540
vn 0.7538 0.1201 -0.6461
vn 0.8204 0.1270 -0.5576
vn 0.7538 0.1566 -0.6382
vn 0.9366 0.0628 -0.3448
vn 0.7530 0.1849 -0.6315
vn 0.8178 0.1301 -0.5607
vn 0.9397 0.0177 -0.3414
vn 0.8763 0.0693 -0.4768
vn 0.9889 -0.0686 -0.1317
vn 0.9888 -0.1332 -0.0678
vn 0.9845 -0.0440 -0.1698
vn 0.9814 -0.1919 0.0099
vn 0.9679 -0.2489 0.0333
vn 0.9725 -0.2282 0.0457
vn 0.9777 -0.1983 0.0688
vn 0.9814 -0.1812 0.0634
vn 0.9630 -0.2685 0.0215
vn 0.9037 -0.3178 0.2868
vn 0.9902 -0.0930 0.1043
vn 0.8029 -0.5269 0.2787
vn 0.6913 -0.1997 0.6944
vn 0.7182 -0.4022 0.5679
vn 0.7056 -0.6186 0.3457
vn 0.6563 -0.6615 0.3629
vn 0.7119 -0.6313 0.3076
vn 0.6981 -0.6048 0.3833
vn 0.9975 0.0706 -0.0000
vn 0.9944 0.1056 -0.0000
vn 0.9943 0.1064 -0.0000
vn 0.6786 0.1362 -0.7218
vn 0.6898 0.1941 -0.6975
vn 0.6911 0.2019 -0.6940
vn 0.6786 0.0899 0.7290
vn 0.6263 0.1338 0.7680
vn 0.6284 0.1321 0.7666
vn 0.8981 -0.2582 -0.3561
vn 0.8292 -0.2698 -0.4896
vn 0.7909 -0.2657 -0.5513
vn 0.7873 -0.2611 -0.5586
vn 0.6302 -0.2499 -0.7351
vn 0.6137 -0.3232 -0.7203
vn 0.3968 -0.2246 -0.8900
vn 0.6138 -0.2483 -0.7494
vn 0.7733 -0.2741 -0.5717
vn 0.8023 -0.3039 -0.5137
vn 0.7645 -0.3742 -0.5249
vn 0.1428 -0.1299 -0.9812
vn 0.3370 -0.2396 -0.9105
vn 0.4051 -0.3385 -0.8493
vn 0.3824 -0.2991 -0.8743
vn 0.4345 -0.2936 -0.8515
vn 0.9933 0.1156 -0.0083
vn 0.9933 0.1155 -0.0083
vn 0.9949 0.1000 -0.0146
vn 0.7204 0.2525 -0.6459
vn 0.7262 0.2523 -0.6395
vn 0.6985 0.2533 -0.6693
vn 0.3012 0.2809 -0.9113
vn 0.7446 0.2514 -0.6184
vn 0.5407 0.2240 0.8108
vn 0.5410 0.2235 0.8108
vn 0.5748 0.1734 0.7997
vn 0.5077 0.2694 0.8183
vn 0.6911 -0.4332 -0.5786
vn 0.6677 -0.4419 -0.5991
vn 0.5903 -0.4324 -0.6816
vn 0.8646 -0.3841 -0.3239
vn 0.5867 -0.4464 -0.6757
vn 0.7069 -0.4450 -0.5498
vn 0.2180 -0.3097 -0.9255
vn 0.4902 -0.3866 -0.7812
vn 0.5040 -0.4124 -0.7589
vn 0.4564 -0.4352 -0.7761
vt 0.777708 0.500781
vt 0.782296 0.500501
vt 0.789824 0.500082
vt 0.790808 0.500000
vt 0.851755 0.500000
vt 0.852515 0.500291
vt 0.853957 0.500658
vt 0.862948 0.501943
vt 0.870877 0.502575
vt 0.875000 0.502933
vt 0.875000 0.564386
vt 0.872919 0.564688
vt 0.871586 0.565226
vt 0.868147 0.565904
vt 0.866254 0.566925
vt 0.866220 0.567801
vt 0.866342 0.569129
vt 0.867920 0.570312
vt 0.868421 0.571110
vt 0.867292 0.572748
vt 0.868495 0.573850
vt 0.868442 0.574553
vt 0.873014 0.575132
vt 0.875000 0.575359
vt 0.875000 0.656758
vt 0.873054 0.656836
vt 0.870531 0.657311
vt 0.865461 0.658009
vt 0.865461 0.658753
vt 0.865072 0.659926
vt 0.875000 0.660609
vt 0.875000 0.687872
vt 0.858744 0.687594
vt 0.829504 0.689962
vt 0.782132 0.688511
vt 0.739525 0.691072
vt 0.695905 0.689417
vt 0.652058 0.691341
vt 0.625000 0.691061
vt 0.625000 0.658072
vt 0.633631 0.657128
vt 0.633631 0.656331
vt 0.633941 0.655750
vt 0.630048 0.654994
vt 0.627176 0.654538
vt 0.625000 0.654257
vt 0.625000 0.500000
vt 0.742206 0.500000
vt 0.746867 0.500315
vt 0.757163 0.500819
vt 0.762331 0.501248
vt 0.764468 0.501351
vt 0.774671 0.501351
vt 0.442608 0.971063
vt 0.442426 0.971037
vt 0.375000 0.968058
vt 0.375000 0.750000
vt 0.625000 0.750000
vt 0.625000 0.984639
vt 0.571603 0.979770
vt 0.571206 0.979731
vt 0.570688 0.979667
vt 0.513971 0.974579
vt 0.442955 0.971059
vt 0.625000 0.001819
vt 0.625000 0.059124
vt 0.552849 0.058670
vt 0.499239 0.058170
vt 0.375000 0.058762
vt 0.375000 0.003702
vt 0.410982 0.003613
vt 0.436156 0.003274
vt 0.474817 0.003393
vt 0.479744 0.003377
vt 0.485059 0.003331
vt 0.562401 0.002437
vt 0.602998 0.002016
vt 0.128308 0.566806
vt 0.128046 0.566544
vt 0.128046 0.566136
vt 0.131510 0.565519
vt 0.131046 0.564728
vt 0.131046 0.564187
vt 0.130785 0.564032
vt 0.129733 0.563993
vt 0.125000 0.563741
vt 0.125000 0.500000
vt 0.375000 0.500000
vt 0.375000 0.691252
vt 0.330587 0.690447
vt 0.290337 0.691120
vt 0.248185 0.692308
vt 0.206312 0.690418
vt 0.170326 0.691549
vt 0.142921 0.688592
vt 0.125000 0.687865
vt 0.125000 0.659785
vt 0.126716 0.659559
vt 0.130351 0.659153
vt 0.130351 0.658896
vt 0.125213 0.658342
vt 0.125000 0.658317
vt 0.125000 0.584450
vt 0.132735 0.584518
vt 0.132712 0.582822
vt 0.130438 0.582027
vt 0.126516 0.581586
vt 0.128370 0.581148
vt 0.128370 0.581131
vt 0.129084 0.580263
vt 0.133660 0.579806
vt 0.135487 0.578969
vt 0.136185 0.577593
vt 0.137676 0.576250
vt 0.136789 0.575174
vt 0.136844 0.573819
vt 0.136170 0.572743
vt 0.138031 0.570313
vt 0.135356 0.568869
vt 0.135107 0.567722
vt 0.129529 0.566986
vt 0.525629 0.691834
vt 0.455441 0.691154
vt 0.576156 0.655054
vt 0.561800 0.655307
vt 0.561658 0.657778
vt 0.576225 0.267020
vt 0.601198 0.270402
vt 0.625000 0.273245
vt 0.625000 0.334192
vt 0.567345 0.339272
vt 0.538541 0.344197
vt 0.512832 0.352508
vt 0.484830 0.366759
vt 0.480471 0.378351
vt 0.566019 0.383519
vt 0.577591 0.383725
vt 0.625000 0.382794
vt 0.375000 0.250000
vt 0.400991 0.250000
vt 0.460787 0.256142
vt 0.466500 0.257121
vt 0.561140 0.265811
vt 0.638399 0.695598
vt 0.375000 0.695317
vt 0.356306 0.696251
vt 0.674576 0.696042
vt 0.701576 0.695159
vt 0.748898 0.696952
vt 0.791799 0.694212
vt 0.841618 0.695327
vt 0.875000 0.690876
vt 0.875000 0.748181
vt 0.871923 0.748429
vt 0.868298 0.748684
vt 0.865606 0.749109
vt 0.859639 0.750000
vt 0.625000 0.695317
vt 0.253640 0.697692
vt 0.298963 0.696016
vt 0.322700 0.696488
vt 0.156942 0.750000
vt 0.154101 0.749123
vt 0.152225 0.748599
vt 0.141209 0.747406
vt 0.132552 0.746544
vt 0.130851 0.746408
vt 0.128560 0.746358
vt 0.125000 0.746298
vt 0.125000 0.691238
vt 0.135504 0.691449
vt 0.165614 0.696052
vt 0.214314 0.694827
vt 0.513166 0.695715
vt 0.455227 0.695139
vt 0.425535 0.169937
vt 0.409335 0.169742
vt 0.406374 0.169314
vt 0.406374 0.169305
vt 0.379390 0.168230
vt 0.387983 0.167538
vt 0.387983 0.166976
vt 0.382774 0.165603
vt 0.375000 0.165550
vt 0.375000 0.091683
vt 0.433712 0.091914
vt 0.477297 0.092183
vt 0.566288 0.092902
vt 0.567307 0.092909
vt 0.568576 0.092923
vt 0.625000 0.093242
vt 0.625000 0.174641
vt 0.592071 0.174479
vt 0.584686 0.174248
vt 0.531973 0.172897
vt 0.512897 0.172490
vt 0.509367 0.171906
vt 0.464931 0.170783
vt 0.375000 0.186259
vt 0.403630 0.186004
vt 0.403630 0.185706
vt 0.428790 0.184872
vt 0.454358 0.184816
vt 0.566288 0.185289
vt 0.581298 0.185382
vt 0.625000 0.185614
vt 0.625000 0.247067
vt 0.563375 0.247641
vt 0.525366 0.248038
vt 0.470108 0.248563
vt 0.452010 0.249139
vt 0.487889 0.090044
vt 0.433712 0.090111
vt 0.390229 0.090213
vt 0.375000 0.090215
vt 0.375000 0.062135
vt 0.506548 0.061407
vt 0.625000 0.062128
vt 0.625000 0.089391
vt 0.622187 0.089411
vt 0.561529 0.089710
vt 0.000000 0.000000
s 1
usemtl Material.045
f 100/1/1 98/2/1 97/3/1 96/4/1 104/5/1 103/6/1 105/7/1 102/8/1 101/9/1 113/10/1 114/11/1 110/12/1 111/13/1 128/14/1 120/15/1 121/16/1 123/17/1 124/18/1 127/19/1 122/20/1 125/21/1 126/22/1 116/23/1 117/24/1 118/25/1 115/26/1 112/27/1 107/28/1 108/29/1 109/30/1 119/31/1 29/32/1 37/33/1 36/34/1 35/35/1 34/36/1 33/37/1 32/38/1 30/39/1 85/40/1 89/41/1 90/42/1 91/43/1 88/44/1 87/45/1 86/46/1 1/47/1 95/48/1 94/49/1 92/50/1 93/51/1 106/52/1 99/53/1
f 133/54/2 131/55/2 130/56/2 4/57/2 3/58/2 129/59/2 137/60/2 136/61/2 135/62/2 134/63/2 132/64/2
f 146/65/3 9/66/3 11/67/3 10/68/3 7/69/3 138/70/3 139/71/3 144/72/3 141/73/3 140/74/3 142/75/3 143/76/3 145/77/3
f 173/78/4 165/79/4 172/80/4 155/81/4 157/82/4 156/83/4 162/84/4 180/85/4 166/86/4 5/87/4 2/88/4 27/89/4 43/90/4 42/91/4 41/92/4 40/93/4 39/94/4 38/95/4 28/96/4 169/97/4 171/98/4 179/99/4 178/100/4 170/101/4 168/102/4 167/103/4 163/104/4 159/105/4 161/106/4 164/107/4 177/108/4 176/109/4 175/110/4 160/111/4 154/112/4 153/113/4 149/114/4 152/115/4 147/116/4 151/117/4 148/118/4 150/119/4 158/120/4 174/121/4
f 30/39/5 45/122/5 44/123/5 27/89/5 2/88/5 1/47/5 86/46/5 181/124/5 182/125/5 183/126/5 85/40/5
f 189/127/6 190/128/6 104/129/6 96/130/6 188/131/6 187/132/6 186/133/6 195/134/6 196/135/6 185/136/6 184/137/6 95/138/6 1/47/6 2/88/6 5/139/6 194/140/6 192/141/6 193/142/6 191/143/6
f 17/144/7 6/145/8 18/146/9
f 16/147/1 15/148/1 14/149/1 13/150/1 12/151/1 9/152/1 146/153/1 199/154/1 197/155/1 198/156/1 129/157/1 3/58/1 8/158/1 17/144/1
f 21/159/4 20/160/4 19/161/4 18/146/4 6/145/4 4/57/4 130/162/4 200/163/4 202/164/4 201/165/4 203/166/4 205/167/4 204/168/4 138/169/4 7/170/4 24/171/4 23/172/4 22/173/4
f 25/174/5 8/158/5 3/58/5 4/57/5 6/145/5 26/175/5
f 208/176/3 209/177/3 210/178/3 211/179/3 212/180/3 213/181/3 215/182/3 214/183/3 167/184/3 168/185/3 217/186/3 216/187/3 222/188/3 224/189/3 223/190/3 118/191/3 117/192/3 221/193/3 220/194/3 236/195/3 234/196/3 233/197/3 235/198/3
f 194/140/3 5/139/3 166/199/3 206/200/3 207/201/3 238/202/3 239/203/3 230/204/3 231/205/3 114/206/3 113/207/3 232/208/3 229/209/3 228/210/3 227/211/3
f 237/212/3 219/213/3 218/214/3 169/215/3 28/216/3 31/217/3 29/218/3 119/219/3 226/220/3 225/221/3
f 16/147/10 18/146/9 19/161/11
f 15/148/12 19/161/11 20/160/13
f 15/148/14 21/159/15 14/149/16
f 14/149/17 21/159/18 22/173/19
f 13/150/20 22/173/21 23/172/22
f 12/151/23 23/172/24 24/171/25
f 9/152/26 24/171/26 7/170/26
f 17/144/7 8/158/27 6/145/8
f 16/147/10 17/144/7 18/146/9
f 15/148/12 16/147/10 19/161/11
f 15/148/14 20/160/28 21/159/15
f 13/150/29 14/149/17 22/173/19
f 12/151/30 13/150/20 23/172/22
f 9/152/31 12/151/23 24/171/25
f 28/96/32 38/95/32 37/33/32 29/32/32
f 38/95/33 39/94/33 36/34/33 37/33/33
f 39/94/34 40/93/34 35/35/34 36/34/34
f 40/93/35 41/92/35 34/36/35 35/35/35
f 41/92/36 42/91/37 33/37/38 34/36/36
f 42/91/37 43/90/39 32/38/40 33/37/38
f 43/90/39 27/89/41 30/39/41 32/38/40
usemtl INSIDE
f 181/222/42 86/222/43 87/222/44
f 88/222/45 91/222/45 46/222/45 182/222/45 181/222/42 87/222/44
f 182/222/46 46/222/46 47/222/46 183/222/46
f 47/222/47 46/222/47 91/222/47 90/222/47 89/222/47
f 183/222/48 47/222/48 89/222/48 85/222/48
f 228/222/49 48/222/50 193/222/51 192/222/52 194/222/52 227/222/52
f 157/222/53 50/222/54 49/222/55 162/222/56 156/222/56
f 180/222/57 162/222/57 49/222/57 206/222/57 166/222/57
f 172/222/58 52/222/58 50/222/54 157/222/53 155/222/58
f 206/222/59 49/222/55 50/222/54 52/222/59 238/222/59 207/222/59
f 148/222/60 54/222/61 53/222/62 158/222/63 150/222/63
f 151/222/64 55/222/65 54/222/61 148/222/60
f 152/222/66 56/222/67 55/222/65 151/222/64 147/222/68
f 153/222/69 57/222/70 56/222/67 152/222/66 149/222/71
f 160/222/72 58/222/73 57/222/70 153/222/69 154/222/74
f 163/222/75 60/222/75 59/222/75 159/222/75
f 173/222/76 61/222/77 52/222/78 172/222/76 165/222/76
f 158/222/79 53/222/62 61/222/77 173/222/79 174/222/79
f 61/222/77 53/222/62 51/222/80 52/222/78
f 209/222/81 208/222/82 58/222/73 160/222/72 175/222/81 176/222/83 210/222/84
f 58/222/73 208/222/82 235/222/85 62/222/86 57/222/70
f 211/222/87 210/222/84 176/222/83 177/222/87 164/222/87 212/222/87
f 164/222/88 161/222/88 159/222/88 59/222/88 213/222/88 212/222/88
f 167/222/89 214/222/89 60/222/89 163/222/89
f 213/222/90 59/222/90 60/222/90 214/222/90 215/222/90
f 195/222/91 63/222/92 185/222/93 196/222/94
f 63/222/92 92/222/95 94/222/96 95/222/96 184/222/96 185/222/93
f 63/222/92 64/222/97 106/222/97 93/222/97 92/222/95
f 187/222/98 65/222/99 63/222/92 195/222/91 186/222/100
f 66/222/101 64/222/101 63/222/92 65/222/99
f 66/222/102 65/222/99 98/222/103 100/222/102 99/222/102
f 106/222/104 64/222/104 66/222/104 99/222/104
f 188/222/105 65/222/99 187/222/98
f 97/222/106 98/222/103 65/222/99 188/222/105 96/222/106
f 103/222/107 104/222/108 190/222/109
f 191/222/110 193/222/51 48/222/50 67/222/111 189/222/112
f 67/222/111 102/222/113 105/222/114 103/222/107 190/222/109 189/222/112
f 229/222/115 232/222/116 67/222/111 48/222/50 228/222/49
f 113/222/117 101/222/117 102/222/113 67/222/111 232/222/116
f 239/222/118 238/222/118 52/222/78 69/222/119 230/222/120
f 68/222/121 69/222/119 52/222/78 51/222/80
f 231/222/122 230/222/120 69/222/119 110/222/123 114/222/122
f 69/222/119 68/222/121 128/222/124 111/222/125 110/222/123
f 53/222/62 70/222/126 68/222/121 51/222/80
f 68/222/121 70/222/126 121/222/127 120/222/128 128/222/124
f 54/222/61 71/222/129 70/222/126 53/222/62
f 70/222/126 71/222/129 124/222/130 123/222/131 121/222/127
f 55/222/65 72/222/132 71/222/129 54/222/61
f 124/222/130 71/222/129 72/222/132 122/222/133 127/222/134
f 56/222/67 73/222/135 72/222/132 55/222/65
f 122/222/133 72/222/132 73/222/135 126/222/136 125/222/136
f 57/222/70 74/222/137 73/222/135 56/222/67
f 117/222/138 116/222/138 126/222/138 73/222/135 221/222/139
f 236/222/140 74/222/137 57/222/70 62/222/86 233/222/141 234/222/142
f 221/222/139 73/222/135 74/222/137 236/222/140 220/222/143
f 235/222/85 233/222/141 62/222/86
f 179/222/144 76/222/145 75/222/146 178/222/144
f 170/222/147 178/222/147 75/222/148 217/222/149 168/222/147
f 218/222/150 219/222/151 76/222/152 179/222/150 171/222/150 169/222/150
f 200/222/153 130/222/153 131/222/154 77/222/155 202/222/156
f 201/222/157 79/222/158 78/222/159 205/222/160 203/222/160
f 202/222/156 77/222/155 79/222/158 201/222/157
f 133/222/161 132/222/162 80/222/163 79/222/158 77/222/155 131/222/154
f 204/222/164 205/222/164 78/222/159 139/222/165 138/222/164
f 139/222/165 78/222/159 79/222/158 81/222/166 141/222/167 144/222/168
f 76/222/145 83/222/169 82/222/170 75/222/146
f 82/222/170 83/222/169 109/222/171 108/222/171 107/222/171
f 217/222/149 75/222/148 82/222/172 222/222/173 216/222/174
f 118/222/175 223/222/175 115/222/175
f 224/222/176 222/222/173 82/222/172 107/222/176 112/222/176 115/222/176 223/222/176
f 225/222/177 83/222/178 76/222/152 219/222/151 237/222/179
f 226/222/180 119/222/180 109/222/180 83/222/178 225/222/177
f 135/222/181 136/222/182 84/222/183 79/222/158 80/222/163
f 80/222/163 132/222/162 134/222/184 135/222/181
f 197/222/185 84/222/183 136/222/182 137/222/186 129/222/186 198/222/186
f 140/222/187 141/222/167 81/222/166 142/222/188
f 84/222/183 143/222/189 142/222/188 81/222/166 79/222/158
f 145/222/190 143/222/189 84/222/183 197/222/185 199/222/190 146/222/190
