# Blender 4.2.1 LTS
# www.blender.org
mtllib desk_w145_break5.mtl
o desk_w145_break5
v 0.217500 0.033000 -1.800000
v 0.217500 -0.033000 -1.800000
v -0.217500 0.033000 -1.800000
v -0.217500 -0.033000 -1.800000
v 0.217500 0.033000 -1.063250
v -0.217500 0.033000 -0.984347
v 0.217500 -0.033000 -1.058858
v -0.217500 -0.033000 -0.982524
v -0.134569 0.033000 -1.034961
v -0.077303 0.033000 -1.034566
v -0.026401 0.033000 -1.050371
v 0.033781 0.033000 -1.036782
v 0.084608 0.033000 -1.064444
v 0.160213 0.033000 -1.069070
v 0.161138 -0.033000 -1.061307
v 0.095206 -0.033000 -1.056743
v 0.021379 -0.033000 -1.022745
v -0.053942 -0.033000 -1.040636
v -0.097887 -0.033000 -1.016232
v -0.151470 -0.033000 -1.028166
vn -0.0000 1.0000 -0.0000
vn -0.0000 -1.0000 -0.0000
vn 1.0000 -0.0000 -0.0000
vn -0.0000 -0.0000 -1.0000
vn -1.0000 -0.0000 -0.0000
vn 0.5427 -0.0147 0.8398
vn -0.1079 0.2154 0.9705
vn 0.3898 0.0534 0.9194
vn -0.2198 0.2369 0.9463
vn 0.4390 0.1401 0.8875
vn 0.2419 0.1327 0.9612
vn 0.2711 0.1341 0.9532
vn -0.0045 0.1064 0.9943
vn -0.0033 0.1067 0.9943
vn -0.0723 0.0910 0.9932
vt 0.625000 0.500000
vt 0.875000 0.500000
vt 0.875000 0.556643
vt 0.827339 0.553128
vt 0.794427 0.553155
vt 0.765173 0.552058
vt 0.730586 0.553001
vt 0.701375 0.551080
vt 0.657923 0.550759
vt 0.625000 0.551163
vt 0.125000 0.500000
vt 0.375000 0.500000
vt 0.375000 0.551468
vt 0.342608 0.551298
vt 0.304716 0.551615
vt 0.262287 0.553976
vt 0.218999 0.552734
vt 0.193743 0.554428
vt 0.162949 0.553600
vt 0.125000 0.556769
vt 0.375000 0.250000
vt 0.625000 0.250000
vt 0.375000 0.193231
vt 0.625000 0.193357
s 1
usemtl Material.047
f 1/1/1 3/2/1 6/3/1 9/4/1 10/5/1 11/6/1 12/7/1 13/8/1 14/9/1 5/10/1
f 4/11/2 2/12/2 7/13/2 15/14/2 16/15/2 17/16/2 18/17/2 19/18/2 20/19/2 8/20/2
f 2/12/3 1/1/3 5/10/3 7/13/3
f 4/21/4 3/22/4 1/1/4 2/12/4
f 8/23/5 6/24/5 3/22/5 4/21/5
f 8/20/6 20/19/6 9/4/6 6/3/6
f 20/19/7 19/18/7 10/5/7 9/4/7
f 19/18/8 18/17/8 11/6/8 10/5/8
f 18/17/9 17/16/9 12/7/9 11/6/9
f 17/16/10 16/15/11 13/8/12 12/7/10
f 16/15/11 15/14/13 14/9/14 13/8/12
f 15/14/13 7/13/15 5/10/15 14/9/14
