# Blender 4.2.1 LTS
# www.blender.org
mtllib desk_w145_break9.mtl
o desk_w145_break9
v 0.217500 0.033000 -1.800000
v 0.217500 -0.033000 -1.800000
v 0.217500 0.033000 1.800000
v 0.217500 -0.033000 1.800000
v -0.217500 0.033000 -1.800000
v -0.217500 -0.033000 -1.800000
v -0.217500 0.033000 1.800000
v -0.217500 -0.033000 1.800000
v 0.063853 0.033000 -1.800000
v 0.014090 -0.033000 -0.172786
v 0.060921 -0.033000 -1.800000
v 0.011756 0.033000 -0.174072
v -0.050269 0.033000 -1.800000
v -0.049441 -0.033000 -1.800000
vn -0.0000 1.0000 -0.0000
vn -0.0000 -0.0000 1.0000
vn -1.0000 -0.0000 -0.0000
vn -0.0000 -1.0000 -0.0000
vn 1.0000 -0.0000 -0.0000
vn -0.0000 -0.0000 -1.0000
vn -0.9995 0.0042 -0.0304
vn 0.9990 0.0236 -0.0386
vt 0.625000 0.500000
vt 0.713303 0.500000
vt 0.743244 0.612912
vt 0.778890 0.500000
vt 0.875000 0.500000
vt 0.875000 0.750000
vt 0.625000 0.750000
vt 0.375000 0.750000
vt 0.625000 1.000000
vt 0.375000 1.000000
vt 0.375000 0.000000
vt 0.625000 0.000000
vt 0.625000 0.250000
vt 0.375000 0.250000
vt 0.125000 0.500000
vt 0.221586 0.500000
vt 0.258098 0.613001
vt 0.285012 0.500000
vt 0.375000 0.500000
vt 0.125000 0.750000
vt 0.625000 0.346110
vt 0.375000 0.346586
vt 0.250638 0.671880
vt 0.748020 0.671939
vt 0.775491 0.746871
vt 0.226122 0.746871
vt 0.284002 0.746871
vt 0.715508 0.746871
vt 0.375000 0.410012
vt 0.625000 0.411697
s 1
usemtl Material.065
f 1/1/1 9/2/1 12/3/1 13/4/1 5/5/1 7/6/1 3/7/1
f 4/8/2 3/7/2 7/9/2 8/10/2
f 8/11/3 7/12/3 5/13/3 6/14/3
f 6/15/4 14/16/4 10/17/4 11/18/4 2/19/4 4/8/4 8/20/4
f 2/19/5 1/1/5 3/7/5 4/8/5
f 6/14/6 5/13/6 13/21/6 14/22/6
f 10/23/7 12/24/7 9/25/7 11/26/7
f 12/24/8 10/23/8 14/27/8 13/28/8
f 11/29/6 9/30/6 1/1/6 2/19/6
