# Blender 4.2.1 LTS
# www.blender.org
mtllib sideblock_break.mtl
o sideblock_break
v 0.217500 -0.117000 0.150000
v 0.217500 0.117000 0.150000
v -0.217500 -0.117000 0.150000
v -0.217500 0.117000 0.150000
v 0.217500 -0.117000 -0.150000
v -0.217500 -0.117000 -0.150000
v 0.217500 -0.018175 -0.122598
v 0.217500 -0.016377 -0.069334
v -0.217500 -0.026055 -0.113813
v -0.217500 -0.025975 -0.111446
v -0.066604 -0.021404 -0.150000
v 0.217500 -0.020791 -0.150000
v 0.217500 -0.018005 -0.125531
v 0.217500 0.046411 0.042510
v 0.217500 0.047730 0.042796
v -0.217500 0.032475 0.018866
v -0.217500 0.054598 0.023649
v 0.217500 0.015687 0.031556
v -0.217500 0.031110 0.018379
v 0.188511 0.117000 0.039440
v 0.217500 0.117000 0.040702
v -0.217500 0.057864 0.023550
v -0.217500 -0.023962 -0.150000
v 0.217500 -0.015941 -0.065987
v -0.217500 -0.018654 -0.055325
v 0.217500 -0.006127 0.002732
v 0.217500 -0.004243 0.004875
v -0.217500 -0.001359 -0.018754
v -0.217500 0.030224 0.017193
v 0.217500 -0.011593 -0.028829
v -0.217500 -0.018461 -0.053674
v 0.217500 -0.010585 -0.026825
v -0.217500 -0.001557 -0.020067
v -0.217500 0.117000 0.026593
vn -0.0000 -0.0000 1.0000
vn -1.0000 -0.0000 -0.0000
vn -0.0000 -0.0000 -1.0000
vn 1.0000 -0.0000 -0.0000
vn -0.0000 -1.0000 -0.0000
vn 0.0465 0.8003 -0.5978
vn 0.0182 0.9887 -0.1491
vn 0.0463 0.2111 -0.9764
vn -0.0000 1.0000 -0.0000
vn 0.0116 0.8933 -0.4493
vn -0.0169 0.9982 0.0577
vn -0.0021 0.9936 -0.1131
vn -0.0094 0.9916 -0.1293
vn -0.0090 0.9932 -0.1162
vn 0.0408 0.7506 -0.6595
vn -0.0188 0.9993 -0.0337
vn 0.0404 0.3356 -0.9412
vn 0.0435 -0.0302 -0.9986
vn 0.0316 0.0514 -0.9982
vt 0.375000 0.000000
vt 0.625000 0.000000
vt 0.625000 0.250000
vt 0.375000 0.250000
vt 0.625000 0.352839
vt 0.561820 0.355375
vt 0.558332 0.355293
vt 0.534695 0.359279
vt 0.533237 0.359684
vt 0.532291 0.360672
vt 0.498549 0.390628
vt 0.498337 0.391722
vt 0.480277 0.419728
vt 0.480070 0.421104
vt 0.472249 0.467872
vt 0.472163 0.469844
vt 0.474400 0.500000
vt 0.375000 0.500000
vt 0.477132 0.586722
vt 0.477787 0.750000
vt 0.375000 0.750000
vt 0.480764 0.770391
vt 0.480582 0.772835
vt 0.482503 0.817222
vt 0.482969 0.820011
vt 0.487615 0.850976
vt 0.488691 0.852646
vt 0.493454 0.877277
vt 0.495466 0.879063
vt 0.516760 0.901297
vt 0.549584 0.910425
vt 0.550994 0.910663
vt 0.625000 0.908918
vt 0.625000 1.000000
vt 0.375000 1.000000
vt 0.125000 0.500000
vt 0.125000 0.750000
vt 0.531050 0.137535
vt 0.515657 0.612285
vt 0.495765 0.597961
vt 0.530166 0.136898
vt 0.498644 0.156198
vt 0.493885 0.599111
vt 0.489435 0.583242
vt 0.498446 0.155493
vt 0.554494 0.135228
vt 0.547639 0.618014
vt 0.546322 0.618167
vt 0.532412 0.137796
vt 0.783918 0.750000
vt 0.782866 0.733340
vt 0.772161 0.500000
vt 0.875000 0.500000
vt 0.875000 0.750000
vt 0.488429 0.584318
vt 0.481575 0.173537
vt 0.473995 0.201511
vt 0.481860 0.537567
vt 0.482029 0.539142
vt 0.478637 0.335878
vt 0.476084 0.220940
vt 0.479249 0.526005
vt 0.481382 0.172651
vt 0.484090 0.564368
vt 0.483654 0.566165
vt 0.474075 0.202782
vt 0.557753 0.135175
vt 0.616776 0.584724
vt 0.616776 0.616889
vt 0.616776 0.133541
s 0
f 1/1/1 2/2/1 4/3/1 3/4/1
f 3/4/2 4/3/2 34/5/2 22/6/2 17/7/2 16/8/2 19/9/2 29/10/2 28/11/2 33/12/2 31/13/2 25/14/2 10/15/2 9/16/2 23/17/2 6/18/2
f 6/18/3 23/17/3 11/19/3 12/20/3 5/21/3
f 5/21/4 12/20/4 13/22/4 7/23/4 8/24/4 24/25/4 30/26/4 32/27/4 26/28/4 27/29/4 18/30/4 14/31/4 15/32/4 21/33/4 2/34/4 1/35/4
f 3/36/5 6/18/5 5/21/5 1/37/5
f 19/38/6 18/39/6 27/40/6 29/41/6
f 28/42/7 26/43/7 32/44/7 33/45/7
f 17/46/8 15/47/8 14/48/8 16/49/8
f 21/50/9 20/51/9 34/52/9 4/53/9 2/54/9
f 33/45/10 32/44/10 30/55/10 31/56/10
f 9/57/11 7/58/11 13/59/11 11/60/11 23/61/11
f 11/60/12 13/59/12 12/62/12
f 25/63/13 24/64/13 8/65/13 10/66/13
f 31/56/14 30/55/14 24/64/14 25/63/14
f 29/41/15 27/40/15 26/43/15 28/42/15
f 10/66/16 8/65/16 7/58/16 9/57/16
f 16/49/17 14/48/17 18/39/17 19/38/17
f 22/67/18 20/68/18 21/69/18 15/47/18 17/46/18
f 20/68/19 22/67/19 34/70/19
