# Blender 4.2.1 LTS
# www.blender.org
mtllib block_break4.mtl
o block_break4
v -0.150000 -0.117000 0.217500
v -0.150000 0.117000 0.217500
v -0.150000 -0.117000 -0.217500
v -0.150000 0.117000 -0.217500
v 0.150000 -0.117000 0.217500
v 0.150000 0.117000 0.217500
v 0.150000 -0.117000 -0.217500
v 0.150000 0.117000 -0.217500
v 0.150000 -0.117000 0.031764
v -0.150000 -0.117000 0.025298
v 0.150000 0.117000 0.023724
v -0.150000 0.117000 0.027460
v 0.150000 -0.117000 -0.007308
v 0.150000 0.117000 -0.017484
v -0.150000 -0.117000 -0.018545
v -0.150000 0.117000 -0.015959
vn -1.0000 -0.0000 -0.0000
vn -0.0000 -0.0000 -1.0000
vn 1.0000 -0.0000 -0.0000
vn -0.0000 -0.0000 1.0000
vn -0.0000 -1.0000 -0.0000
vn -0.0000 1.0000 -0.0000
vn -0.0162 0.0162 0.9997
vn 0.0045 -0.0126 -0.9999
vt 0.375000 0.000000
vt 0.625000 0.000000
vt 0.625000 0.109219
vt 0.375000 0.110461
vt 0.375000 0.250000
vt 0.625000 0.250000
vt 0.625000 0.500000
vt 0.375000 0.500000
vt 0.625000 0.614952
vt 0.375000 0.620800
vt 0.375000 0.750000
vt 0.625000 0.750000
vt 0.625000 1.000000
vt 0.375000 1.000000
vt 0.125000 0.500000
vt 0.125000 0.614342
vt 0.875000 0.500000
vt 0.875000 0.615828
vt 0.125000 0.639539
vt 0.375000 0.643255
vt 0.125000 0.750000
vt 0.625000 0.638635
vt 0.875000 0.640781
vt 0.875000 0.750000
vt 0.375000 0.135658
vt 0.625000 0.134172
s 0
f 1/1/1 2/2/1 12/3/1 10/4/1
f 3/5/2 4/6/2 8/7/2 7/8/2
f 7/8/3 8/7/3 14/9/3 13/10/3
f 5/11/4 6/12/4 2/13/4 1/14/4
f 3/15/5 7/8/5 13/10/5 15/16/5
f 8/7/6 4/17/6 16/18/6 14/9/6
f 10/19/5 9/20/5 5/11/5 1/21/5
f 9/20/3 11/22/3 6/12/3 5/11/3
f 11/22/6 12/23/6 2/24/6 6/12/6
f 15/25/1 16/26/1 4/6/1 3/5/1
f 13/10/7 14/9/7 16/26/7 15/25/7
f 10/4/8 12/3/8 11/22/8 9/20/8
