# Blender 4.2.1 LTS
# www.blender.org
mtllib block_break3.mtl
o block_break3
v -0.150000 -0.117000 0.217500
v -0.150000 0.117000 0.217500
v -0.150000 -0.117000 -0.217500
v -0.150000 0.117000 -0.217500
v 0.150000 -0.117000 0.217500
v 0.150000 0.117000 0.217500
v 0.150000 -0.117000 -0.217500
v 0.150000 0.117000 -0.217500
v 0.150000 0.117000 -0.043242
v 0.150000 0.117000 0.060861
v 0.150000 -0.046868 0.012039
v 0.150000 -0.013546 -0.012760
v 0.150000 0.031563 -0.029089
v 0.150000 0.094186 -0.046525
v 0.150000 0.092301 0.051107
v 0.150000 0.065818 0.037564
v 0.150000 0.040638 0.026958
v 0.150000 0.014336 0.025302
v 0.150000 -0.007698 0.012644
v 0.087386 0.117000 -0.040682
v 0.050155 0.117000 -0.026777
v 0.033613 0.117000 0.007092
v 0.049657 0.117000 0.036484
v 0.080446 0.117000 0.042337
v 0.095790 0.117000 0.063623
v 0.125088 0.092088 -0.043242
v 0.125088 0.092088 0.060861
v 0.125088 -0.071781 0.012039
v 0.125088 -0.038458 -0.012760
v 0.125088 0.006651 -0.029089
v 0.125088 0.069274 -0.046525
v 0.125088 0.067388 0.051107
v 0.125088 0.040906 0.037564
v 0.125088 0.015726 0.026958
v 0.125088 -0.010577 0.025302
v 0.125088 -0.032610 0.012644
v 0.062474 0.092088 -0.040682
v 0.025242 0.092088 -0.026777
v 0.008700 0.092088 0.007092
v 0.024745 0.092088 0.036484
v 0.055534 0.092088 0.042337
v 0.070878 0.092088 0.063623
vn -1.0000 -0.0000 -0.0000
vn -0.0000 -0.0000 -1.0000
vn 1.0000 -0.0000 -0.0000
vn -0.0000 -0.0000 1.0000
vn -0.0000 -1.0000 -0.0000
vn -0.0000 1.0000 -0.0000
vn -0.2087 0.2087 -0.9554
vn -0.3648 0.3648 -0.8567
vn -0.3958 0.3958 -0.8287
vn -0.2005 0.2005 -0.9590
vn 0.1195 -0.1195 0.9856
vn 0.3302 -0.3302 0.8843
vn 0.2609 -0.2609 0.9294
vn 0.6684 -0.6684 0.3264
vn -0.4002 0.4002 -0.8245
vn -0.3769 0.3769 -0.8461
vn 0.6597 -0.6597 -0.3601
vn -0.2906 0.2906 -0.9116
vn -0.1457 0.1457 -0.9785
vn 0.1836 -0.1836 -0.9657
vn -0.0627 0.0627 -0.9961
vn -0.5126 0.5126 0.6888
vn -0.3832 0.3832 0.8404
vn -0.4647 0.4647 0.7537
vn 0.6300 -0.6300 -0.4541
vn -0.4459 0.4459 -0.7761
vn -0.2762 0.2762 0.9206
vn -0.3059 0.3059 0.9016
vn -0.0508 0.0508 -0.9974
vn -0.0154 0.0154 -0.9998
vn -0.2591 0.2591 0.9305
vn 0.0915 -0.0915 0.9916
vn 0.0911 -0.0911 0.9917
vn 0.1411 -0.1411 0.9799
vt 0.375000 0.000000
vt 0.625000 0.000000
vt 0.625000 0.250000
vt 0.375000 0.250000
vt 0.625000 0.500000
vt 0.375000 0.500000
vt 0.625000 0.600149
vt 0.600626 0.598261
vt 0.533721 0.608282
vt 0.485528 0.617667
vt 0.449927 0.631919
vt 0.491776 0.632266
vt 0.515316 0.639541
vt 0.543417 0.640493
vt 0.570318 0.646589
vt 0.598612 0.654372
vt 0.625000 0.659978
vt 0.625000 0.750000
vt 0.375000 0.750000
vt 0.625000 1.000000
vt 0.375000 1.000000
vt 0.125000 0.500000
vt 0.125000 0.750000
vt 0.875000 0.500000
vt 0.875000 0.750000
vt 0.670175 0.661565
vt 0.682962 0.649331
vt 0.708619 0.645968
vt 0.721989 0.629076
vt 0.708205 0.609611
vt 0.677178 0.601620
s 1
f 1/1/1 2/2/1 4/3/1 3/4/1
f 3/4/2 4/3/2 8/5/2 7/6/2
f 7/6/3 8/5/3 9/7/3 14/8/3 13/9/3 12/10/3 11/11/3 19/12/3 18/13/3 17/14/3 16/15/3 15/16/3 10/17/3 6/18/3 5/19/3
f 5/19/4 6/18/4 2/20/4 1/21/4
f 3/22/5 7/6/5 5/19/5 1/23/5
f 8/5/6 4/24/6 2/25/6 6/18/6 10/17/6 25/26/6 24/27/6 23/28/6 22/29/6 21/30/6 20/31/6 9/7/6
f 10/17/7 15/16/8 32/16/9 27/17/10
f 20/31/11 21/30/12 38/30/12 37/31/13
f 21/30/14 22/29/14 39/29/14 38/30/14
f 15/16/8 16/15/15 33/15/16 32/16/9
f 22/29/17 23/28/17 40/28/17 39/29/17
f 16/15/15 17/14/18 34/14/19 33/15/16
f 23/28/20 24/27/20 41/27/20 40/28/20
f 17/14/18 18/13/21 35/13/21 34/14/19
f 11/11/22 12/10/23 29/10/24 28/11/22
f 24/27/25 25/26/25 42/26/25 41/27/25
f 18/13/26 19/12/26 36/12/26 35/13/26
f 12/10/23 13/9/27 30/9/28 29/10/24
f 25/26/29 10/17/7 27/17/10 42/26/29
f 19/12/30 11/11/30 28/11/30 36/12/30
f 13/9/27 14/8/31 31/8/31 30/9/28
f 9/7/32 20/31/11 37/31/13 26/7/33
f 14/8/34 9/7/32 26/7/33 31/8/34
f 29/10/3 36/12/3 28/11/3
f 29/10/3 34/14/3 35/13/3
f 30/9/3 34/14/3 29/10/3
f 31/8/3 33/15/3 30/9/3
f 31/8/3 27/17/3 32/16/3
f 26/7/3 27/17/3 31/8/3
f 26/7/6 41/27/6 42/26/6
f 37/31/6 40/28/6 41/27/6
f 38/30/6 40/28/6 37/31/6
f 29/10/3 35/13/3 36/12/3
f 30/9/3 33/15/3 34/14/3
f 31/8/3 32/16/3 33/15/3
f 26/7/6 42/26/6 27/17/6
f 26/7/6 37/31/6 41/27/6
f 38/30/6 39/29/6 40/28/6
