# Blender 4.2.1 LTS
# www.blender.org
mtllib block_normal2.mtl
o block_normal2
v -0.150000 -0.117000 0.217500
v -0.150000 0.117000 0.217500
v -0.150000 -0.117000 -0.217500
v -0.150000 0.117000 -0.217500
v 0.150000 -0.117000 0.217500
v 0.150000 0.117000 0.217500
v 0.150000 -0.117000 -0.217500
v 0.125268 -0.112179 -0.089726
v 0.138780 -0.103308 -0.102876
v 0.138780 -0.103308 -0.106213
v 0.097196 0.095568 -0.200593
v 0.137957 0.067256 -0.173335
v 0.131436 0.087500 -0.167526
v 0.120375 0.113307 -0.156020
v 0.137643 0.067754 -0.192500
v 0.118489 0.085341 -0.190356
v 0.107291 0.108337 -0.177260
v 0.115567 0.072235 -0.212367
v 0.149679 0.108071 -0.143366
v 0.087475 0.094917 -0.217500
v 0.089505 0.089482 -0.217500
v 0.081207 0.117000 -0.217500
v 0.150000 0.057450 -0.217500
v 0.128300 0.062658 -0.217500
v 0.123793 0.066532 -0.217500
v 0.104640 0.077302 -0.217500
v 0.119410 0.067834 -0.217500
v 0.150000 0.067147 -0.161724
v 0.150000 0.087500 -0.154250
v 0.150000 0.091790 -0.151022
v 0.150000 0.117000 -0.135109
v 0.150000 0.107010 -0.143710
v 0.150000 0.108476 -0.142994
v 0.150000 0.059344 -0.211050
v 0.150000 0.050510 -0.192211
v 0.150000 0.061410 -0.165161
v 0.150000 0.050511 -0.192500
v 0.150000 -0.110617 -0.081443
v 0.150000 -0.117000 -0.074916
v 0.150000 -0.107405 -0.088524
v 0.150000 -0.101866 -0.114265
v 0.150000 -0.117000 -0.124669
v 0.150000 -0.098628 -0.110742
v 0.150000 -0.098628 -0.099013
v 0.120182 -0.117000 -0.094551
v 0.116411 -0.117000 -0.089091
v 0.124041 -0.117000 -0.078173
v 0.132174 -0.117000 -0.115443
v 0.135316 -0.117000 -0.080782
v 0.129319 -0.117000 -0.112995
v 0.125268 -0.117000 -0.101536
v 0.129319 -0.117000 -0.111995
v 0.092771 0.117000 -0.194520
v 0.104014 0.117000 -0.169564
v 0.098016 0.117000 -0.186218
v 0.096510 0.117000 -0.190356
v 0.094276 0.117000 -0.191967
v 0.117328 0.117000 -0.150655
v 0.115778 0.117000 -0.156336
v 0.138516 0.117000 -0.135038
v 0.120266 0.117000 -0.149101
vn -1.0000 -0.0000 -0.0000
vn -0.0000 -0.0000 -1.0000
vn 1.0000 -0.0000 -0.0000
vn -0.0000 -0.0000 1.0000
vn -0.0000 -1.0000 -0.0000
vn -0.0000 1.0000 -0.0000
vn 0.2280 -0.8006 -0.5541
vn 0.4768 -0.8786 0.0250
vn 0.4240 -0.8631 -0.2743
vn 0.4648 -0.8213 0.3308
vn 0.6743 -0.6928 0.2557
vn 0.7199 -0.6534 0.2342
vn 0.5824 -0.6342 0.5084
vn 0.5688 -0.6877 0.4511
vn 0.4806 -0.8621 -0.1605
vn 0.1693 -0.7755 -0.6082
vn 0.2271 -0.8281 -0.5125
vn 0.2911 -0.8839 -0.3661
vn 0.2615 -0.8547 -0.4485
vn 0.4517 -0.5845 0.6741
vn 0.4600 -0.6851 0.5649
vn 0.8433 0.2770 -0.4606
vn 0.7703 0.3782 -0.5134
vn 0.7019 0.4956 -0.5117
vn 0.7106 0.5056 -0.4892
vn 0.2932 0.8206 -0.4905
vn 0.5434 0.6013 -0.5858
vn 0.6344 0.6494 -0.4193
vn 0.4787 0.8262 -0.2969
vn 0.6307 0.7369 -0.2434
vn 0.6462 0.6123 -0.4556
vn 0.6368 0.5074 -0.5806
vn 0.7256 0.5540 -0.4080
vn 0.6748 0.5373 -0.5058
vn 0.6747 0.5230 -0.5208
vn 0.6820 0.4735 -0.5573
vn 0.6484 0.6278 -0.4306
vn 0.5293 0.7423 -0.4109
vn 0.5285 0.7473 -0.4028
vn 0.5410 0.7124 -0.4470
vn 0.5156 0.8165 -0.2599
vn 0.5493 0.6879 -0.4745
vn 0.6900 0.5326 -0.4901
vn 0.5231 0.4221 -0.7404
vn 0.6004 0.3415 -0.7232
vn 0.4144 0.6039 -0.6809
vn 0.2787 0.8176 -0.5039
vn 0.4688 0.4720 -0.7467
vn 0.4688 0.4720 -0.7466
vn 0.2785 0.8178 -0.5036
vn 0.5919 0.7978 -0.1148
vn 0.7081 0.6881 -0.1587
vn 0.4812 0.8733 -0.0754
vt 0.375000 0.000000
vt 0.625000 0.000000
vt 0.625000 0.250000
vt 0.375000 0.250000
vt 0.566942 0.481917
vt 0.561379 0.500000
vt 0.375000 0.500000
vt 0.625000 0.442673
vt 0.601407 0.447896
vt 0.595601 0.449587
vt 0.582587 0.462200
vt 0.572473 0.474508
vt 0.571081 0.478160
vt 0.615893 0.542820
vt 0.625000 0.547351
vt 0.625000 0.750000
vt 0.375000 0.750000
vt 0.375000 0.581945
vt 0.381819 0.578194
vt 0.385251 0.574124
vt 0.394629 0.568096
vt 0.394629 0.561355
vt 0.391169 0.559330
vt 0.375000 0.553351
vt 0.563401 0.503707
vt 0.553964 0.514368
vt 0.553963 0.514534
vt 0.565609 0.530080
vt 0.571738 0.532055
vt 0.593483 0.536350
vt 0.598067 0.538206
vt 0.614327 0.542408
vt 0.625000 1.000000
vt 0.375000 1.000000
vt 0.350152 0.570661
vt 0.347009 0.573798
vt 0.353368 0.580073
vt 0.362764 0.578574
vt 0.125000 0.750000
vt 0.125000 0.500000
vt 0.360145 0.558653
vt 0.357766 0.560060
vt 0.357766 0.560635
vt 0.354390 0.566646
vt 0.652227 0.538417
vt 0.653518 0.535152
vt 0.663321 0.527549
vt 0.668320 0.517978
vt 0.669575 0.515600
vt 0.671436 0.514674
vt 0.672691 0.513207
vt 0.682327 0.500000
vt 0.875000 0.500000
vt 0.875000 0.750000
vt 0.634570 0.547392
vt 0.649778 0.539310
vt 0.000000 0.000000
s 0
usemtl OUTSIDE
f 1/1/1 2/2/1 4/3/1 3/4/1
f 24/5/2 23/6/2 7/7/2 3/4/2 4/3/2 22/8/2 20/9/2 21/10/2 26/11/2 27/12/2 25/13/2
f 33/14/3 31/15/3 6/16/3 5/17/3 39/18/3 38/19/3 40/20/3 44/21/3 43/22/3 41/23/3 42/24/3 7/7/3 23/6/3 34/25/3 37/26/3 35/27/3 36/28/3 28/29/3 29/30/3 30/31/3 32/32/3
f 5/17/4 6/16/4 2/33/4 1/34/4
f 45/35/5 46/36/5 47/37/5 49/38/5 39/18/5 5/17/5 1/39/5 3/40/5 7/7/5 42/24/5 48/41/5 50/42/5 52/43/5 51/44/5
f 58/45/6 59/46/6 54/47/6 55/48/6 56/49/6 57/50/6 53/51/6 22/52/6 4/53/6 2/54/6 6/16/6 31/15/6 60/55/6 61/56/6
s 1
usemtl INSIDE
f 47/57/7 46/57/8 8/57/9
f 8/57/9 46/57/8 45/57/10 51/57/11
f 52/57/12 50/57/13 10/57/14 9/57/15 8/57/9 51/57/11
f 49/57/16 47/57/7 8/57/9 38/57/17 39/57/16
f 38/57/17 8/57/9 9/57/15 44/57/18 40/57/19
f 10/57/14 50/57/13 48/57/20 42/57/20 41/57/20 43/57/21
f 44/57/18 9/57/15 10/57/14 43/57/21
f 53/57/22 57/57/23 11/57/24 21/57/25 20/57/22 22/57/22
f 61/57/26 14/57/27 59/57/28 58/57/29
f 15/57/30 16/57/31 13/57/32 12/57/33
f 16/57/31 17/57/34 14/57/27 13/57/32
f 55/57/35 17/57/34 16/57/31 11/57/24 57/57/23 56/57/36
f 59/57/28 14/57/27 17/57/34 55/57/35 54/57/37
f 25/57/38 27/57/39 18/57/40 16/57/31 15/57/30 24/57/41
f 18/57/40 27/57/39 26/57/42
f 21/57/25 11/57/24 16/57/31 18/57/40 26/57/42
f 36/57/43 12/57/33 13/57/32 29/57/44 28/57/45
f 19/57/46 33/57/47 32/57/48
f 29/57/44 13/57/32 14/57/27 19/57/46 32/57/48 30/57/49
f 33/57/47 19/57/46 14/57/27 61/57/26 60/57/50 31/57/50
f 37/57/51 15/57/30 12/57/33 36/57/43 35/57/52
f 34/57/53 23/57/53 24/57/41 15/57/30 37/57/51
